<svg id="그룹_1699" data-name="그룹 1699" xmlns="http://www.w3.org/2000/svg" xmlns:xlink="http://www.w3.org/1999/xlink" width="89.948" height="87.834" viewBox="0 0 89.948 87.834">
  <defs>
    <clipPath id="clip-path">
      <rect id="사각형_2025" data-name="사각형 2025" width="89.948" height="87.834" fill="none"/>
    </clipPath>
  </defs>
  <g id="그룹_1698" data-name="그룹 1698" clip-path="url(#clip-path)">
    <path id="패스_1631" data-name="패스 1631" d="M10.734,12.837A9.495,9.495,0,0,0,1.25,22.321V33.494" transform="translate(-0.292 -3.001)" fill="none" stroke="#336" stroke-linecap="round" stroke-linejoin="round" stroke-width="2.5"/>
    <line id="선_86" data-name="선 86" x1="1.364" transform="translate(64.08 73.276)" fill="none" stroke="#336" stroke-linecap="round" stroke-linejoin="round" stroke-width="2.5"/>
    <path id="패스_1632" data-name="패스 1632" d="M111.139,79.215v3.093a9.5,9.5,0,0,1-9.484,9.485h-6.9" transform="translate(-22.149 -18.516)" fill="none" stroke="#336" stroke-linecap="round" stroke-linejoin="round" stroke-width="2.5"/>
    <path id="패스_1633" data-name="패스 1633" d="M81.2,73.081H12.136A4.886,4.886,0,0,1,7.25,68.195V23.724a4.886,4.886,0,0,1,4.886-4.886H81.2a4.886,4.886,0,0,1,4.886,4.886V68.195A4.886,4.886,0,0,1,81.2,73.081" transform="translate(-1.695 -4.403)" fill="#989ed6"/>
    <rect id="사각형_2022" data-name="사각형 2022" width="78.836" height="54.244" rx="6.377" transform="translate(5.556 14.434)" fill="none" stroke="#336" stroke-linecap="round" stroke-linejoin="round" stroke-width="2.5"/>
    <path id="패스_1634" data-name="패스 1634" d="M13.622,69.7,13.6,25.209l69.082-.018L82.7,69.68l-.018.018Z" transform="translate(-3.18 -5.888)" fill="#fff"/>
    <path id="패스_1635" data-name="패스 1635" d="M13.622,69.7,13.6,25.209l69.082-.018L82.7,69.68l-.018.018Z" transform="translate(-3.18 -5.888)" fill="none" stroke="#336" stroke-linecap="round" stroke-linejoin="round" stroke-width="2.5"/>
    <path id="패스_1636" data-name="패스 1636" d="M77.4,1.25a4.538,4.538,0,0,0-4.535,4.536V64.1H32.077V5.786A4.533,4.533,0,0,1,36.613,1.25Z" transform="translate(-7.498 -0.292)" fill="#fff"/>
    <path id="패스_1637" data-name="패스 1637" d="M77.4,1.25a4.538,4.538,0,0,0-4.535,4.536V64.1H32.077V5.786A4.533,4.533,0,0,1,36.613,1.25Z" transform="translate(-7.498 -0.292)" fill="none" stroke="#336" stroke-linecap="round" stroke-linejoin="round" stroke-width="2.5"/>
    <path id="패스_1638" data-name="패스 1638" d="M94.389,5.786v4.535H85.31V5.786a4.54,4.54,0,0,1,9.079,0" transform="translate(-19.941 -0.292)" fill="#fff"/>
    <path id="패스_1639" data-name="패스 1639" d="M94.389,5.786v4.535H85.31V5.786a4.54,4.54,0,0,1,9.079,0Z" transform="translate(-19.941 -0.292)" fill="none" stroke="#336" stroke-linecap="round" stroke-linejoin="round" stroke-width="2.5"/>
    <path id="패스_1640" data-name="패스 1640" d="M61.81,26.166a4.485,4.485,0,1,1-4.485-4.485,4.485,4.485,0,0,1,4.485,4.485" transform="translate(-12.351 -5.068)" fill="#fff"/>
    <rect id="사각형_2023" data-name="사각형 2023" width="14.742" height="18.198" transform="translate(37.603 68.678)" fill="#989ed6"/>
    <rect id="사각형_2024" data-name="사각형 2024" width="14.742" height="18.198" transform="translate(37.603 68.678)" fill="none" stroke="#336" stroke-linecap="round" stroke-linejoin="round" stroke-width="2.5"/>
    <path id="패스_1641" data-name="패스 1641" d="M75.085,111.955H27.913a4.662,4.662,0,0,1,4.662-4.663H70.422A4.662,4.662,0,0,1,75.085,111.955Z" transform="translate(-6.524 -25.079)" fill="#989ed6"/>
    <path id="패스_1642" data-name="패스 1642" d="M75.085,111.955H27.913a4.662,4.662,0,0,1,4.662-4.663H70.422A4.662,4.662,0,0,1,75.085,111.955Z" transform="translate(-6.524 -25.079)" fill="none" stroke="#336" stroke-linecap="round" stroke-linejoin="round" stroke-width="2.5"/>
    <line id="선_87" data-name="선 87" x2="0.89" transform="translate(15.014 9.837)" fill="none" stroke="#336" stroke-linecap="round" stroke-linejoin="round" stroke-width="2.5"/>
    <path id="패스_1643" data-name="패스 1643" d="M50.869,54.184l-9.417-9.417,4.094-3.89L50.869,46.2l15.15-15.15,4.095,4.094Z" transform="translate(-9.689 -7.258)" fill="#f81"/>
    <path id="패스_1644" data-name="패스 1644" d="M50.869,54.184l-9.417-9.417,4.094-3.89L50.869,46.2l15.15-15.15,4.095,4.094Z" transform="translate(-9.689 -7.258)" fill="none" stroke="#336" stroke-linecap="round" stroke-linejoin="round" stroke-width="2.5"/>
  </g>
</svg>
