<svg id="그룹_1811" data-name="그룹 1811" xmlns="http://www.w3.org/2000/svg" xmlns:xlink="http://www.w3.org/1999/xlink" width="166" height="66.1" viewBox="0 0 166 66.1">
  <defs>
    <clipPath id="clip-path">
      <rect id="사각형_2164" data-name="사각형 2164" width="166" height="66.1" fill="none"/>
    </clipPath>
  </defs>
  <rect id="사각형_2163" data-name="사각형 2163" width="19.758" height="24.468" transform="translate(55.665 22.928) rotate(-7.214)" fill="#1a1311"/>
  <g id="그룹_1810" data-name="그룹 1810">
    <g id="그룹_1809" data-name="그룹 1809" clip-path="url(#clip-path)">
      <path id="패스_2076" data-name="패스 2076" d="M672.692,131.286a3.9,3.9,0,1,1-3.947,3.9,3.936,3.936,0,0,1,3.947-3.9m3.278,3.9a3.278,3.278,0,1,0-3.278,3.287,3.282,3.282,0,0,0,3.278-3.287m-1.469.67a1.747,1.747,0,0,1-1.757,1.3,1.954,1.954,0,1,1,1.757-2.608h-.974a.8.8,0,0,0-.774-.487,1.014,1.014,0,0,0-.939,1.139c0,.643.348,1.148.939,1.148a.767.767,0,0,0,.766-.487Z" transform="translate(-510.64 -100.247)" fill="#1a1311"/>
      <path id="패스_2077" data-name="패스 2077" d="M301.191,249.291l-3.014-4.081v4.081h-2.184v-9.243h2.184V244.1l2.988-4.055h2.567l-3.474,4.529,3.6,4.714Z" transform="translate(-226.015 -183.297)" fill="#e85400"/>
      <path id="패스_2078" data-name="패스 2078" d="M333.869,254.72a3.319,3.319,0,0,1-1.315-1.316,4.375,4.375,0,0,1,.007-4,3.338,3.338,0,0,1,1.327-1.324,4.109,4.109,0,0,1,3.78,0A3.336,3.336,0,0,1,339,249.408a4.317,4.317,0,0,1-.007,3.989,3.37,3.37,0,0,1-1.341,1.323,3.907,3.907,0,0,1-1.9.461,3.833,3.833,0,0,1-1.884-.461m2.95-1.962a1.917,1.917,0,0,0,.44-1.356,1.957,1.957,0,0,0-.427-1.356,1.423,1.423,0,0,0-2.114-.007,1.972,1.972,0,0,0-.422,1.363,2,2,0,0,0,.415,1.356,1.326,1.326,0,0,0,1.041.474,1.4,1.4,0,0,0,1.066-.474" transform="translate(-253.565 -189.081)" fill="#e85400"/>
      <path id="패스_2079" data-name="패스 2079" d="M371.733,248.082a2.413,2.413,0,0,1,1.277-.349v2.383h-.6a1.8,1.8,0,0,0-1.226.362,1.637,1.637,0,0,0-.409,1.271v3.41h-2.184v-7.347h2.184v1.225a2.929,2.929,0,0,1,.957-.955" transform="translate(-281.45 -189.164)" fill="#e85400"/>
      <path id="패스_2080" data-name="패스 2080" d="M397.255,251.941h-4.942a1.551,1.551,0,0,0,.427,1.047,1.285,1.285,0,0,0,.926.362,1.144,1.144,0,0,0,1.136-.711h2.325a3.328,3.328,0,0,1-.645,1.3,3.233,3.233,0,0,1-1.168.908,3.656,3.656,0,0,1-1.571.329,3.724,3.724,0,0,1-1.865-.461A3.23,3.23,0,0,1,390.6,253.4a4.614,4.614,0,0,1-.006-4,3.191,3.191,0,0,1,1.27-1.317,3.763,3.763,0,0,1,1.878-.461,3.717,3.717,0,0,1,1.839.448,3.17,3.17,0,0,1,1.258,1.277,3.974,3.974,0,0,1,.453,1.936,5.978,5.978,0,0,1-.038.658m-2.2-1.25a1.175,1.175,0,0,0-.384-.922,1.385,1.385,0,0,0-.958-.342,1.359,1.359,0,0,0-.925.329,1.475,1.475,0,0,0-.466.935Z" transform="translate(-297.904 -189.08)" fill="#e85400"/>
      <path id="패스_2081" data-name="패스 2081" d="M424.1,249.4a3.167,3.167,0,0,1,1.131-1.317,2.885,2.885,0,0,1,1.6-.461,2.675,2.675,0,0,1,1.322.316,2.3,2.3,0,0,1,.875.829v-1.04h2.184v7.347h-2.184v-1.04a2.388,2.388,0,0,1-.888.829,2.672,2.672,0,0,1-1.322.316,2.829,2.829,0,0,1-1.583-.467,3.2,3.2,0,0,1-1.131-1.329,4.548,4.548,0,0,1-.415-2,4.5,4.5,0,0,1,.415-1.988m4.47.671a1.5,1.5,0,0,0-2.21-.006,1.853,1.853,0,0,0-.453,1.323,1.9,1.9,0,0,0,.453,1.337,1.491,1.491,0,0,0,2.21.006,2.177,2.177,0,0,0,0-2.66" transform="translate(-323.519 -189.081)" fill="#e85400"/>
      <path id="패스_2082" data-name="패스 2082" d="M473.2,241.875a4.171,4.171,0,0,1,1.6-1.672,4.536,4.536,0,0,1,2.33-.6,4.373,4.373,0,0,1,2.733.869,4.184,4.184,0,0,1,1.519,2.37h-2.4a1.977,1.977,0,0,0-.759-.882,2.09,2.09,0,0,0-1.118-.3,2.057,2.057,0,0,0-1.635.724,3.305,3.305,0,0,0,0,3.87,2.056,2.056,0,0,0,1.635.724,2.09,2.09,0,0,0,1.118-.3,1.976,1.976,0,0,0,.759-.882h2.4a4.15,4.15,0,0,1-1.519,2.363,4.387,4.387,0,0,1-2.733.863,4.536,4.536,0,0,1-2.33-.6,4.189,4.189,0,0,1-1.6-1.665,5.463,5.463,0,0,1,0-4.878" transform="translate(-360.889 -182.957)" fill="#e85400"/>
      <path id="패스_2083" data-name="패스 2083" d="M515.124,236.624a1.148,1.148,0,0,1-.364-.863,1.164,1.164,0,0,1,.364-.876,1.3,1.3,0,0,1,.938-.348,1.289,1.289,0,0,1,.926.348,1.163,1.163,0,0,1,.364.876,1.148,1.148,0,0,1-.364.863,1.288,1.288,0,0,1-.926.348,1.3,1.3,0,0,1-.938-.348m2.024,8.459h-2.184v-7.347h2.184Z" transform="translate(-393.061 -179.088)" fill="#e85400"/>
      <path id="패스_2084" data-name="패스 2084" d="M534.108,247.722v1.909H533a2.667,2.667,0,0,1-1.852-.6,2.521,2.521,0,0,1-.664-1.955v-2.923h-.868v-1.87h.868v-1.791h2.184v1.791H534.1v1.87h-1.431V247.1a.628.628,0,0,0,.154.474.733.733,0,0,0,.51.145Z" transform="translate(-404.402 -183.636)" fill="#e85400"/>
      <path id="패스_2085" data-name="패스 2085" d="M557.171,248.082a2.414,2.414,0,0,1,1.277-.349v2.383h-.6a1.8,1.8,0,0,0-1.226.362,1.638,1.638,0,0,0-.409,1.271v3.41H554.03v-7.347h2.184v1.225a2.931,2.931,0,0,1,.957-.955" transform="translate(-423.046 -189.164)" fill="#e85400"/>
      <path id="패스_2086" data-name="패스 2086" d="M584.249,248.067v7.347h-2.184v-1a2.42,2.42,0,0,1-.9.783,2.681,2.681,0,0,1-1.258.3,2.757,2.757,0,0,1-1.443-.375,2.5,2.5,0,0,1-.97-1.086,3.8,3.8,0,0,1-.345-1.673v-4.292h2.172v3.989a1.642,1.642,0,0,0,.37,1.146,1.278,1.278,0,0,0,1,.408,1.3,1.3,0,0,0,1.01-.408,1.647,1.647,0,0,0,.37-1.146v-3.989Z" transform="translate(-440.699 -189.419)" fill="#e85400"/>
      <path id="패스_2087" data-name="패스 2087" d="M614.1,254.851a2.842,2.842,0,0,1-1.149-.9,2.416,2.416,0,0,1-.473-1.284h2.159a.859.859,0,0,0,.344.618,1.2,1.2,0,0,0,.754.237,1.051,1.051,0,0,0,.632-.164.508.508,0,0,0,.223-.428.494.494,0,0,0-.319-.467,6.359,6.359,0,0,0-1.035-.335,9.459,9.459,0,0,1-1.277-.388,2.215,2.215,0,0,1-.881-.645,1.794,1.794,0,0,1-.371-1.192,2.071,2.071,0,0,1,.339-1.152,2.292,2.292,0,0,1,1-.823,3.718,3.718,0,0,1,1.565-.3,3.074,3.074,0,0,1,2.114.685,2.694,2.694,0,0,1,.887,1.817h-2.018a.9.9,0,0,0-.326-.605,1.107,1.107,0,0,0-.721-.224.974.974,0,0,0-.588.152.487.487,0,0,0-.2.415.505.505,0,0,0,.326.474,5.109,5.109,0,0,0,1.015.316,10.875,10.875,0,0,1,1.29.415,2.228,2.228,0,0,1,.875.658,1.9,1.9,0,0,1,.389,1.218,1.978,1.978,0,0,1-.351,1.152,2.342,2.342,0,0,1-1.009.8,3.764,3.764,0,0,1-1.526.289,3.984,3.984,0,0,1-1.66-.329" transform="translate(-467.674 -189.08)" fill="#e85400"/>
      <path id="패스_2088" data-name="패스 2088" d="M71.864,60.717,5.682,64.964,2.455,52.2l63.281-4.949Z" transform="translate(-1.874 -36.082)" fill="#1a1311"/>
      <path id="패스_2089" data-name="패스 2089" d="M65.306,7.99V6.48a2.224,2.224,0,0,0-.979-1.846q.112-1.1.224-2.191A2.231,2.231,0,0,0,63.988.722,2.206,2.206,0,0,0,62.332,0c-4.2.042-8.41.165-12.615.338a2.308,2.308,0,0,0-1.58.724A2.1,2.1,0,0,0,46.484.37q-1.088.05-2.176.1a2.331,2.331,0,0,0-1.385.55,2.163,2.163,0,0,0-.961-.168q-4.077.21-8.154.445a2.3,2.3,0,0,0-1.3.536,2.077,2.077,0,0,0-1.189-.325c-4.268.24-8.536.475-12.8.67a2.283,2.283,0,0,0-.9.238,2.112,2.112,0,0,0-1.4-.472q-.977.04-1.955.078a2.3,2.3,0,0,0-.637.116,2.292,2.292,0,0,0-.637-.069c-.648.022-1.3.045-1.944.065a2.285,2.285,0,0,0-1.5.62c-.046,0-.089,0-.136,0q-3.4.091-6.8.122A2.243,2.243,0,0,0,.381,5.12q0,.825,0,1.649A2.214,2.214,0,0,0,2.61,8.988H2.8c-.061,1.9-.606,3.229-1.617,3.937a2.239,2.239,0,0,0-.954,1.831q0,1.048,0,2.1a2.215,2.215,0,0,0,3.2,1.991,9.5,9.5,0,0,0,2.6-1.9,9.117,9.117,0,0,0,2.61,1.8,2.12,2.12,0,0,0,.951.2,2.128,2.128,0,0,0,1.46.5q.972-.03,1.944-.065a2.35,2.35,0,0,0,.637-.116,2.113,2.113,0,0,0,.637.069c.652-.024,1.3-.051,1.955-.078a2.35,2.35,0,0,0,2.229-2.326V15.437q1.57-.072,3.14-.148v1.631a2.1,2.1,0,0,0,2.229,2.115l2.207-.117a2.379,2.379,0,0,0,2.229-2.35V14.936l3.753-.209a2.258,2.258,0,0,0,.224-.058v1.536a2.08,2.08,0,0,0,2.229,2.1l.089,0q4.285-.412,8.57-.8a2.149,2.149,0,0,0,1.189.282q1.088-.054,2.176-.1a2.326,2.326,0,0,0,1.624-.8,2.122,2.122,0,0,0,1.623.653c4.252-.175,8.5-.3,12.754-.339a2.247,2.247,0,0,0,2.229-2.242q0-.693,0-1.385a2.2,2.2,0,0,0-.231-.989V9.721a2.231,2.231,0,0,0,.823-1.732" transform="translate(-0.174 0)" fill="#1a1311"/>
      <path id="패스_2090" data-name="패스 2090" d="M18.473,12.076q-.979.04-1.958.076a.76.76,0,0,0-.634.383.716.716,0,0,0-.638-.337q-.972.033-1.944.062a.772.772,0,0,0-.744.766v4.237c-.611.018-1.223.033-1.834.048a.762.762,0,0,0-.7.511c-.011-.211-.014-.427-.014-.648V16.058q.831-.018,1.663-.039a.771.771,0,0,0,.744-.764V13.6a.724.724,0,0,0-.744-.724q-3.4.087-6.8.111a.75.75,0,0,0-.744.748v1.652a.743.743,0,0,0,.744.741q.84-.006,1.68-.015V17.23c0,2.618-.763,4.483-2.261,5.536a.746.746,0,0,0-.321.61v2.1a.74.74,0,0,0,.349.629.721.721,0,0,0,.719.035,8.081,8.081,0,0,0,3.247-2.918,7.615,7.615,0,0,0,3.251,2.812.714.714,0,0,0,.719-.058.751.751,0,0,0,.306-.4v.3a.722.722,0,0,0,.744.722q.972-.029,1.944-.062a.772.772,0,0,0,.638-.382.7.7,0,0,0,.634.336q.979-.036,1.958-.076a.783.783,0,0,0,.744-.775V12.789a.709.709,0,0,0-.744-.714" transform="translate(-3.026 -9.22)" fill="#e85400"/>
      <path id="패스_2091" data-name="패스 2091" d="M84.111,17.4a.737.737,0,0,0,.042-.244V15.536a.7.7,0,0,0-.734-.7,5.855,5.855,0,0,1-4.134-1.191q1.983-.107,3.966-.22A.8.8,0,0,0,84,12.636V10.988a.7.7,0,0,0-.744-.7c-4.266.239-8.534.472-12.8.663a.786.786,0,0,0-.744.777v1.648a.708.708,0,0,0,.744.711Q72.436,14,74.419,13.9a6.451,6.451,0,0,1-4.134,1.617.785.785,0,0,0-.733.776v1.624a.692.692,0,0,0,.043.24.787.787,0,0,0-.57.748v1.648a.705.705,0,0,0,.744.712q2.619-.115,5.238-.248v3.116a.7.7,0,0,0,.744.706l2.208-.116a.8.8,0,0,0,.744-.784V20.819q2.617-.142,5.234-.29a.8.8,0,0,0,.744-.786q0-.825,0-1.648a.7.7,0,0,0-.569-.691" transform="translate(-52.706 -7.853)" fill="#e85400"/>
      <path id="패스_2092" data-name="패스 2092" d="M166.345,8.034l-.363,0q.178-1.726.356-3.45a.734.734,0,0,0-.188-.572.743.743,0,0,0-.552-.24c-4.2.049-8.41.18-12.615.357a.784.784,0,0,0-.744.776V6.462a.71.71,0,0,0,.744.713c3.173-.133,6.345-.241,9.518-.307L162.364,8.1c-3.292.07-6.585.187-9.877.328V7.263a.707.707,0,0,0-.744-.711l-1.246.056V4.873a.705.705,0,0,0-.744-.71l-2.176.106a.793.793,0,0,0-.744.782q0,3.411,0,6.822-2.46.124-4.921.261c2.7-1.093,4.063-3,4.063-5.7q0-.538,0-1.075a.7.7,0,0,0-.744-.705q-4.077.214-8.154.448a.8.8,0,0,0-.744.786v1.6a.7.7,0,0,0,.744.7q2.6-.146,5.2-.289c-.3.806-1.382,1.873-5.291,2.16a.8.8,0,0,0-.73.785q0,.8,0,1.61a.7.7,0,0,0,.73.7v5.284a.7.7,0,0,0,.228.525.72.72,0,0,0,.516.178.181.181,0,0,1,.028,0q4.59-.441,9.179-.864a.7.7,0,0,0,.641.334l2.176-.106a.791.791,0,0,0,.744-.778V12.44a.715.715,0,0,0-.05-.265.774.774,0,0,0,.05-.266V9.773l.936-.042v.989a.708.708,0,0,0,.744.711l.331-.014a.767.767,0,0,0-.253.567v1.343a.723.723,0,0,0,.121.4.778.778,0,0,0-.121.411v3.511a.709.709,0,0,0,.744.712c4.252-.178,8.5-.311,12.754-.358a.755.755,0,0,0,.744-.751V15.866a.745.745,0,0,0-.278-.578.783.783,0,0,0,.046-.261v-3.44a.726.726,0,0,0-.252-.553l.331,0a.755.755,0,0,0,.744-.75V8.772a.738.738,0,0,0-.744-.738" transform="translate(-104.041 -2.883)" fill="#e85400"/>
      <path id="패스_2093" data-name="패스 2093" d="M36.115,14.472q-.972.033-1.944.062a.313.313,0,0,0-.3.308v4.682q-1.14.033-2.279.06a.306.306,0,0,0-.3.306q0,.831,0,1.663a.288.288,0,0,0,.3.292q1.14-.026,2.279-.06V27.7a.287.287,0,0,0,.3.29q.972-.03,1.944-.062a.315.315,0,0,0,.3-.31q0-6.427,0-12.854a.288.288,0,0,0-.3-.288" transform="translate(-23.898 -11.05)" fill="#e23100"/>
      <path id="패스_2094" data-name="패스 2094" d="M11,21.21V19.65q1.054-.021,2.108-.048a.311.311,0,0,0,.3-.307q0-.826,0-1.652a.292.292,0,0,0-.3-.291q-3.4.087-6.8.111a.3.3,0,0,0-.3.3v1.652a.3.3,0,0,0,.3.3q1.063-.006,2.125-.02v1.56c0,2.77-.823,4.761-2.453,5.9a.315.315,0,0,0-.128.247q0,1.049,0,2.1a.292.292,0,0,0,.142.252.326.326,0,0,0,.285.013,7.457,7.457,0,0,0,3.443-3.44,7.09,7.09,0,0,0,3.447,3.327.256.256,0,0,0,.128.029.286.286,0,0,0,.156-.051.307.307,0,0,0,.143-.257v-2.1a.3.3,0,0,0-.132-.242C11.825,25.949,11,23.984,11,21.21" transform="translate(-4.463 -13.249)" fill="#e23100"/>
      <path id="패스_2095" data-name="패스 2095" d="M58.044,13.958q-.979.04-1.958.076a.316.316,0,0,0-.3.31V27.2a.29.29,0,0,0,.3.288q.979-.036,1.958-.076a.318.318,0,0,0,.3-.311V14.245a.286.286,0,0,0-.3-.287" transform="translate(-42.597 -10.658)" fill="#e23100"/>
      <path id="패스_2096" data-name="패스 2096" d="M73.434,19.619s0,0,0,0c2.9-.165,5.405-1.324,6.555-2.969,1.145,1.526,3.651,2.42,6.551,2.291,0,0,0,0,0,0a.332.332,0,0,0,.21-.1.3.3,0,0,0,.089-.215V17a.281.281,0,0,0-.3-.282c-2.812.121-4.557-1.112-5-2.035q2.418-.129,4.835-.267a.319.319,0,0,0,.3-.316V12.453a.277.277,0,0,0-.3-.283c-4.267.239-8.534.473-12.8.663a.315.315,0,0,0-.3.312v1.648a.285.285,0,0,0,.3.286q2.416-.107,4.832-.232c-.413.959-2.14,2.386-4.992,2.549a.316.316,0,0,0-.3.312v1.624a.281.281,0,0,0,.089.206.3.3,0,0,0,.21.08" transform="translate(-55.844 -9.292)" fill="#e23100"/>
      <path id="패스_2097" data-name="패스 2097" d="M85.374,42.234c-4.723.266-9.445.527-14.168.731a.314.314,0,0,0-.3.312v1.648a.283.283,0,0,0,.3.283q2.843-.124,5.686-.271V48.5a.28.28,0,0,0,.3.284L79.4,48.67a.321.321,0,0,0,.3-.315q0-1.782,0-3.564,2.84-.152,5.679-.314a.318.318,0,0,0,.3-.313V42.517a.278.278,0,0,0-.3-.282" transform="translate(-54.143 -32.249)" fill="#e23100"/>
      <path id="패스_2098" data-name="패스 2098" d="M146.98,10.742q0-.538,0-1.075a.284.284,0,0,0-.3-.283q-4.077.213-8.154.448a.322.322,0,0,0-.3.316v1.6a.281.281,0,0,0,.3.282q2.871-.162,5.743-.319c-.186,1.8-2.1,2.805-5.825,3.084a.315.315,0,0,0-.292.312V16.71a.268.268,0,0,0,.3.279s0,0,.007,0c5.733-.426,8.525-2.461,8.524-6.246" transform="translate(-105.491 -7.165)" fill="#e23100"/>
      <path id="패스_2099" data-name="패스 2099" d="M170.141,9.918l-.911.01a.285.285,0,0,0,.071-.161q.194-1.889.388-3.778a.3.3,0,0,0-.3-.328c-4.2.049-8.41.18-12.615.357a.317.317,0,0,0-.3.311V7.882a.285.285,0,0,0,.3.287c3.338-.141,6.677-.252,10.016-.317q-.105.948-.21,1.9a.276.276,0,0,0,.071.222c-3.56.071-7.121.193-10.682.348a.286.286,0,0,0-.135.063q0-.831,0-1.659a.285.285,0,0,0-.3-.286l-1.691.077V6.333a.284.284,0,0,0-.3-.285l-2.176.106a.324.324,0,0,0-.3.314V13.5a.29.29,0,0,0,.114.229c-3.221.161-6.443.341-9.664.522a.319.319,0,0,0-.3.312v5.288a.284.284,0,0,0,.093.208.281.281,0,0,0,.206.074s.007-.006.011,0c3.18-.3,6.359-.608,9.539-.893v.082a.283.283,0,0,0,.3.283l2.176-.106a.317.317,0,0,0,.3-.313V13.9a.276.276,0,0,0-.164-.256.321.321,0,0,0,.164-.275V10.787q.846-.04,1.691-.077a.305.305,0,0,0,.139-.064v1.492a.284.284,0,0,0,.3.286q1.468-.062,2.938-.12l-.185.713q-.965.037-1.93.078a.311.311,0,0,0-.3.308v1.343a.286.286,0,0,0,.3.286q5.024-.212,10.048-.317v.218c-3.35.064-6.7.176-10.048.317a.315.315,0,0,0-.3.308v3.511a.287.287,0,0,0,.3.286c4.251-.178,8.5-.311,12.754-.358a.3.3,0,0,0,.3-.3V17.309a.3.3,0,0,0-.3-.3c-3.427.039-6.853.132-10.28.26v-.246c3.349-.125,6.7-.217,10.048-.257a.3.3,0,0,0,.3-.3v-3.44a.3.3,0,0,0-.3-.292q-.972.013-1.944.029v-.705q1.383-.024,2.766-.038a.305.305,0,0,0,.3-.3v-1.51a.3.3,0,0,0-.3-.3m-26.131,7.833v-1.5q3.532-.2,7.064-.377v1.246q-3.532.306-7.064.633m17.433-4.831q.1-.356.2-.711,1.531-.049,3.062-.088v.705q-1.629.04-3.258.094" transform="translate(-107.837 -4.322)" fill="#e23100"/>
      <path id="패스_2100" data-name="패스 2100" d="M7.115,25.782c1.507-1.057,2.578-2.962,2.579-6.15v-1.86q-1.212.016-2.423.024v-1.65q3.4-.021,6.8-.111v1.65q-1.2.031-2.408.054V19.6c0,3.188,1.071,5.058,2.595,6.067v2.1a6.693,6.693,0,0,1-3.573-3.853,7.061,7.061,0,0,1-3.573,3.969q0-1.049,0-2.1m6.013-3.655V20.462q1.29-.03,2.579-.069V15.415q.971-.03,1.942-.062V28.205q-.971.033-1.942.062V22.058q-1.289.038-2.579.069m5.795,6.033q0-6.426,0-12.852.979-.036,1.958-.076V28.084q-.979.04-1.958.076" transform="translate(-5.433 -11.631)" fill="#ffc400"/>
      <path id="패스_2101" data-name="패스 2101" d="M78.154,26.5v-3.86q-2.991.154-5.981.286v-1.65c4.723-.206,9.446-.466,14.169-.731v1.65q-2.991.169-5.982.33v3.86l-2.206.116M72.7,18.661c3.2-.186,5.251-1.974,5.376-3.168q-2.61.134-5.22.252,0-.825,0-1.65c4.267-.19,8.535-.423,12.8-.663q0,.825,0,1.65-2.618.146-5.236.288c.155,1.18,2.192,2.749,5.391,2.612V19.6c-3.2.14-5.686-1-6.556-2.55-.87,1.641-3.355,3.045-6.556,3.229Z" transform="translate(-55.11 -10.256)" fill="#ffc400"/>
      <path id="패스_2102" data-name="패스 2102" d="M139.4,14.465c3.9-.287,6.137-1.391,6.137-3.7q-3.03.163-6.059.336V9.51q4.079-.229,8.156-.448v1.077c0,4.265-3.79,5.6-8.234,5.935Zm.73,7.595V16.774c4.008-.226,8.017-.448,12.025-.637v5.286l-2.175.106c0-.131,0-.26,0-.391q-4.925.442-9.85.923M142.32,20.3q3.83-.353,7.659-.688,0-.916,0-1.832-3.83.191-7.659.409V20.3m7.659-4.59q0-3.517,0-7.034l2.175-.106v2.475l1.989-.091v1.678q-.994.043-1.989.09v2.881l-2.175.106" transform="translate(-106.442 -6.545)" fill="#ffc400"/>
      <path id="패스_2103" data-name="패스 2103" d="M217.77,12.69q-1.53.015-3.061.043c0,.434,0,.867,0,1.3q1.118-.021,2.237-.034,0,1.719,0,3.44c-3.449.041-6.9.137-10.347.269v.839c3.527-.133,7.053-.231,10.58-.27q0,.692,0,1.384c-4.251.048-8.5.18-12.755.358v-3.51c3.449-.145,6.9-.259,10.347-.323v-.811c-3.449.063-6.9.177-10.347.323V14.355q1.08-.046,2.159-.087l.342-1.314q-1.662.063-3.325.135v-1.51c4.723-.205,9.446-.355,14.169-.4q0,.755,0,1.51m-3.262-1.953q.124-1.115.248-2.228c-3.449.063-6.9.178-10.347.323V7.279c4.2-.177,8.41-.307,12.615-.357q-.194,1.891-.388,3.781c-.709.009-1.419.022-2.128.035m-5.826,3.456q1.973-.067,3.946-.114v-1.3q-1.795.043-3.589.1l-.357,1.312" transform="translate(-155.466 -5.286)" fill="#ffc400"/>
      <path id="패스_2104" data-name="패스 2104" d="M153.651,6.97a4.177,4.177,0,0,0-2.927-1.2h-.073c-2.768.048-5.614.144-8.46.284a4.176,4.176,0,0,0-3.97,4.171v2.057c-2.363.148-4.794.321-7.282.534a4.162,4.162,0,0,0-2.636,1.248,4.159,4.159,0,0,0-2.82-.737c-2.577.26-5.272.56-8.01.889a4.119,4.119,0,0,0-1.281.4,4.1,4.1,0,0,0-1.158-.1c-2.527.318-5.141.667-7.991,1.068a4.168,4.168,0,0,0-2.621,1.455,4.176,4.176,0,0,0-2.925-.65q-3.287.49-6.575,1.011a9.24,9.24,0,0,0-1.8-2.169c-2.814-2.387-7.064-3.128-12.63-2.2-9.224,1.531-14.515,6.4-14.515,13.367v6.542a8.811,8.811,0,0,0-3.033-6.652c-2.73-2.359-7.072-3.242-12.237-2.484a22.553,22.553,0,0,0-7.242,2.3l.174-1.249a4.176,4.176,0,0,0-4.658-4.721c-2.664.336-5.307.646-7.856.921a4.176,4.176,0,0,0-2.991,1.782,4.168,4.168,0,0,0-3.283-1.159c-2.384.217-4.768.406-7.085.565a4.172,4.172,0,0,0-2.859,1.417,4.139,4.139,0,0,0-3-1.076c-2.624.126-5.249.212-7.8.257A4.176,4.176,0,0,0,.042,27.608q2.28,16,4.56,31.96a4.176,4.176,0,0,0,4.132,3.585l.15,0c3.379-.12,6.9-.309,10.459-.564a4.172,4.172,0,0,0,2.746-1.306A4.181,4.181,0,0,0,25,62.132c3.327-.295,6.834-.656,10.423-1.072a4.176,4.176,0,0,0,3.654-3.57q.073-.524.147-1.05c.179.182.324.386.522.556,2.6,2.242,6.044,2.822,8.913,2.822a23.57,23.57,0,0,0,3.425-.259c8.551-1.257,14.076-6.216,14.076-12.635V46.7a9.236,9.236,0,0,0,3.053,5.825c2.057,1.743,4.876,2.618,8.416,2.618a27.123,27.123,0,0,0,4.429-.394c4.872-.81,8.609-2.57,11.086-5.055l0,0c2.346,2.03,5.558,2.637,8.562,2.637a26.55,26.55,0,0,0,3.782-.287c5.217-.763,9.157-2.655,11.567-5.331.035.026.071.07.106.094a8.209,8.209,0,0,0,4.891,1.463,15.606,15.606,0,0,0,5.014-.939q1.055-.344,2.091-.677a4.171,4.171,0,0,0,2.49.571c2.654-.228,5.287-.421,7.825-.574a4.147,4.147,0,0,0,1.582-.425,4.15,4.15,0,0,0,1.339.258q.1,0,.2-.005c2.775-.137,5.532-.229,8.194-.276a4.176,4.176,0,0,0,4.1-4.175V9.949a4.178,4.178,0,0,0-1.249-2.979" transform="translate(0 -4.408)" fill="#1a1311"/>
      <path id="패스_2105" data-name="패스 2105" d="M43.031,72.916a1.386,1.386,0,0,0-1.162-.406c-2.7.331-5.356.634-7.9.9a1.392,1.392,0,0,0-1.236,1.2L31.052,87.014,29.139,75.175a1.4,1.4,0,0,0-1.493-1.166c-2.428.209-4.832.389-7.146.536a1.392,1.392,0,0,0-1.288,1.182L17.455,87.393,16.021,76.074a1.387,1.387,0,0,0-1.44-1.216c-2.68.113-5.334.185-7.887.213A1.392,1.392,0,0,0,5.332,76.66q2.28,16.015,4.56,31.987a1.392,1.392,0,0,0,1.377,1.2h.041c3.36-.1,6.846-.268,10.361-.5a1.392,1.392,0,0,0,1.28-1.162l1.389-8.411,1.458,8.011a1.4,1.4,0,0,0,1.487,1.137c3.324-.281,6.805-.624,10.348-1.022a1.391,1.391,0,0,0,1.223-1.19q2.28-16.3,4.56-32.618a1.391,1.391,0,0,0-.386-1.168" transform="translate(-4.061 -55.359)" fill="#e85400"/>
      <path id="패스_2106" data-name="패스 2106" d="M183.554,103.986a1.392,1.392,0,0,0,.53-1.093V94.114A6.156,6.156,0,0,0,181.99,89.3c-2.842-2.461-7.487-2.218-10.006-1.856-5.655.826-11.7,3.8-11.7,9.691v13.739a6.238,6.238,0,0,0,2.149,4.876,10.919,10.919,0,0,0,7.161,2.162,20.389,20.389,0,0,0,2.948-.223c5.4-.78,11.7-3.83,11.7-9.862v-2.641a1.389,1.389,0,0,0-.689-1.2m-10.224,2.45v1.428c0,.45-.7.756-1.347.85a2.044,2.044,0,0,1-.977-.04.268.268,0,0,1-.007-.07v-2.539q1.25-.178,2.543-.368a1.387,1.387,0,0,0-.212.739M171,97.543v-.359c0-.449.7-.819,1.384-.918a2.682,2.682,0,0,1,.377-.029,1.054,1.054,0,0,1,.559.11.324.324,0,0,1,.011.1V97.2q-1.165.171-2.331.338" transform="translate(-122.39 -66.598)" fill="#e85400"/>
      <path id="패스_2107" data-name="패스 2107" d="M354.763,38.778c-2.605.171-5.285.381-7.965.623a1.392,1.392,0,0,0-1.267,1.386V58.219c-.787.2-1.573.4-2.353.6-.1.024-.181.043-.256.058V41.314a1.393,1.393,0,0,0-1.538-1.384c-2.565.27-5.242.577-7.956.914a1.39,1.39,0,0,0-1.132.906,1.36,1.36,0,0,0-.2-.264,1.394,1.394,0,0,0-1.1-.335c-2.535.327-5.209.692-7.95,1.085a1.392,1.392,0,0,0-1.194,1.378V53.925q-1.25.333-2.5.67l-.065.02c-.061.02-.115.035-.163.048V44.425a1.391,1.391,0,0,0-1.6-1.376q-3.872.584-7.744,1.2a1.379,1.379,0,0,0-.812.456,6.219,6.219,0,0,0-2.026-3.43c-2.161-1.831-5.653-2.361-10.374-1.574-7.858,1.3-12.186,5.076-12.187,10.618V68.986a6.644,6.644,0,0,0,2.255,5.336c1.527,1.294,3.794,1.952,6.663,1.952a24.123,24.123,0,0,0,3.924-.35c6.227-1.037,10.193-3.636,11.59-7.414A5.6,5.6,0,0,0,310.6,71.5c1.73,1.494,4.236,1.952,6.66,1.952a24.1,24.1,0,0,0,3.46-.271c6.825-1.019,10.975-3.937,11.7-8.074a5.17,5.17,0,0,0,1.989,3.285,5.507,5.507,0,0,0,3.266.935,12.753,12.753,0,0,0,4.13-.807c1.273-.421,2.541-.833,3.787-1.232a1.392,1.392,0,0,0,1.453.968c2.657-.241,5.313-.449,7.9-.618a1.393,1.393,0,0,0,1.3-1.389V40.167a1.392,1.392,0,0,0-.44-1.016,1.424,1.424,0,0,0-1.043-.373m-35.424,24.4q1.261-.411,2.521-.818v1.482c0,.427-.7.752-1.388.853a1.734,1.734,0,0,1-.941-.049c0-.013,0-.029,0-.051v-.714a1.391,1.391,0,0,0-.19-.7m-10.722-11.76v2.147a1.369,1.369,0,0,0-.811-.148q-5.416.872-10.832,1.776a1.392,1.392,0,0,0-1.164,1.373v5.888a1.391,1.391,0,0,0,1.62,1.373l1.076-.178v1.819c0,.625-.891,1.109-1.729,1.247a1.753,1.753,0,0,1-1.232-.121c-.016-.013-.044-.037-.044-.165V50.125c0-.917,1.275-1.173,1.532-1.215a1.51,1.51,0,0,1,1.026.076.42.42,0,0,1,.051.244v2.5a1.393,1.393,0,0,0,1.62,1.374q4.159-.688,8.321-1.362a1.331,1.331,0,0,0,.567-.319" transform="translate(-217.155 -29.609)" fill="#e85400"/>
      <path id="패스_2108" data-name="패스 2108" d="M600.655,11.613a1.387,1.387,0,0,0-1.005-.4c-2.731.064-5.548.175-8.37.33a1.392,1.392,0,0,0-1.316,1.39v32.08a1.392,1.392,0,0,0,1.392,1.393l.076,0c2.794-.153,5.58-.263,8.283-.327a1.392,1.392,0,0,0,1.359-1.391V12.608a1.391,1.391,0,0,0-.419-1" transform="translate(-450.485 -8.564)" fill="#e85400"/>
      <path id="패스_2109" data-name="패스 2109" d="M44.668,76.04c-2.7.332-5.366.634-7.92.9a.558.558,0,0,0-.494.48L33.823,95.4l-2.812-17.4a.553.553,0,0,0-.6-.466c-2.434.209-4.845.39-7.164.537a.557.557,0,0,0-.516.473L20.081,96.177l-2.191-17.3a.556.556,0,0,0-.552-.486h-.024c-2.689.113-5.351.186-7.913.214a.557.557,0,0,0-.545.635q2.279,16.015,4.56,31.987a.557.557,0,0,0,.551.478h.016c3.35-.1,6.825-.268,10.33-.5a.557.557,0,0,0,.512-.465L27,97.585l2.32,12.743a.552.552,0,0,0,.595.455c3.316-.279,6.79-.622,10.325-1.019a.557.557,0,0,0,.489-.476q2.28-16.3,4.56-32.617a.557.557,0,0,0-.619-.63" transform="translate(-6.758 -58.06)" fill="#e23100"/>
      <path id="패스_2110" data-name="패스 2110" d="M185.461,107.338q-4.062.641-8.124,1.248a.556.556,0,0,0-.475.55v1.428c0,1.018-1.11,1.539-2.062,1.676a2.188,2.188,0,0,1-1.67-.274.821.821,0,0,1-.269-.662V108.04c3.853-.544,7.986-1.166,12.615-1.9a.557.557,0,0,0,.47-.55V96.815a5.276,5.276,0,0,0-1.806-4.182c-1.893-1.639-5.3-2.245-9.339-1.661-5.31.775-10.984,3.511-10.984,8.864v13.739a5.357,5.357,0,0,0,1.86,4.244,10.08,10.08,0,0,0,6.6,1.96,19.643,19.643,0,0,0,2.844-.216c5.067-.732,10.985-3.538,10.985-9.035v-2.641a.557.557,0,0,0-.2-.423.548.548,0,0,0-.449-.126m-12.6-6.132V99.884c0-1,1.055-1.593,2.1-1.744a3.408,3.408,0,0,1,.5-.038,1.7,1.7,0,0,1,1.112.324.89.89,0,0,1,.293.717v1.482q-2,.3-4,.579" transform="translate(-125.087 -69.299)" fill="#e23100"/>
      <path id="패스_2111" data-name="패스 2111" d="M310.635,58.823q-5.413.872-10.828,1.776a.556.556,0,0,0-.466.549v5.888a.556.556,0,0,0,.647.549l2.049-.339v2.805c0,1.148-1.259,1.878-2.428,2.071a2.448,2.448,0,0,1-1.909-.309.986.986,0,0,1-.338-.8V54.7c0-1.233,1.152-1.861,2.23-2.039a2.155,2.155,0,0,1,1.7.263,1.084,1.084,0,0,1,.347.882v2.5a.556.556,0,0,0,.2.425.562.562,0,0,0,.451.124q4.163-.688,8.324-1.362a.557.557,0,0,0,.468-.549V51.269a5.935,5.935,0,0,0-1.973-4.774c-1.938-1.643-5.292-2.124-9.7-1.388-7.408,1.23-11.488,4.709-11.489,9.794V73.564a5.848,5.848,0,0,0,1.96,4.7,9.409,9.409,0,0,0,6.1,1.755,23.559,23.559,0,0,0,3.808-.339c7.409-1.234,11.488-4.707,11.488-9.779V59.372a.559.559,0,0,0-.2-.424.552.552,0,0,0-.45-.126" transform="translate(-219.852 -34.187)" fill="#e23100"/>
      <path id="패스_2112" data-name="패스 2112" d="M412.054,52.308c-2.53.326-5.2.691-7.938,1.084a.557.557,0,0,0-.478.551V64.9c-1.039.276-2.081.555-3.143.843a1.357,1.357,0,0,1-1.031.063c-.144-.1-.223-.4-.223-.843v-10.2a.556.556,0,0,0-.194-.422.565.565,0,0,0-.446-.129q-3.869.585-7.737,1.2a.558.558,0,0,0-.469.55V68.839a4.9,4.9,0,0,0,1.791,4.213c1.459,1.043,3.653,1.075,6.514.1q2.47-.809,4.94-1.6v2.627c0,1.013-1.132,1.538-2.1,1.68A2.114,2.114,0,0,1,399.9,75.6a.828.828,0,0,1-.266-.668v-.714a.558.558,0,0,0-.193-.422.567.567,0,0,0-.446-.129q-4.067.612-8.133,1.264a.557.557,0,0,0-.469.549v1.749a5,5,0,0,0,1.7,3.977c1.333,1.151,3.464,1.745,6.16,1.745a22.734,22.734,0,0,0,3.291-.257c7.08-1.058,11.141-4.178,11.141-8.562V52.861a.556.556,0,0,0-.189-.418.566.566,0,0,0-.439-.135" transform="translate(-298.097 -39.938)" fill="#e23100"/>
      <path id="패스_2113" data-name="패스 2113" d="M511.96,42.306c-2.6.171-5.271.379-7.944.622a.557.557,0,0,0-.507.555V61.565q-1.5.372-2.987.754c-.969.241-1.168.114-1.187.1-.1-.082-.1-.676-.1-.961V44.008a.557.557,0,0,0-.615-.553c-2.56.269-5.232.576-7.94.912a.556.556,0,0,0-.488.552V65.83c0,2.166.623,3.706,1.851,4.579a4.7,4.7,0,0,0,2.784.782,12.016,12.016,0,0,0,3.868-.767c1.626-.537,3.243-1.061,4.82-1.561v.7a.557.557,0,0,0,.607.554c2.665-.242,5.328-.45,7.917-.619a.557.557,0,0,0,.52-.555V42.862a.558.558,0,0,0-.593-.556" transform="translate(-374.296 -32.303)" fill="#e23100"/>
      <path id="패스_2114" data-name="패스 2114" d="M602.769,14.906a.563.563,0,0,0-.4-.158c-2.723.064-5.53.175-8.344.33a.556.556,0,0,0-.526.556v32.08a.557.557,0,0,0,.557.557h.03c2.8-.153,5.6-.263,8.309-.327a.557.557,0,0,0,.544-.557V15.305a.558.558,0,0,0-.168-.4" transform="translate(-453.182 -11.261)" fill="#e23100"/>
      <path id="패스_2115" data-name="패스 2115" d="M35.67,100.995q1.467-10.846,2.934-21.7,3.965-.412,7.93-.9-2.28,16.32-4.56,32.617-5.155.579-10.31,1.018-1.447-7.942-2.894-15.9-1.348,8.166-2.7,16.321-5.155.344-10.309.5-2.28-15.973-4.56-31.987,3.965-.044,7.93-.214,1.348,10.648,2.7,21.283,1.626-10.79,3.251-21.6,3.588-.227,7.177-.538,1.705,10.559,3.41,21.1" transform="translate(-8.556 -59.857)" fill="#ffc400"/>
      <path id="패스_2116" data-name="패스 2116" d="M187.346,109.683v2.64c0,4.85-5.194,7.718-10.507,8.485-5.353.785-10.666-.581-10.666-5.438V101.632c0-4.849,5.154-7.532,10.508-8.313,5.313-.767,10.507.437,10.507,5.291v8.778q-6.543,1.033-13.085,1.964V113.1c0,1.25,1.191,1.691,2.577,1.488s2.538-.979,2.538-2.228v-1.428q4.064-.6,8.128-1.248M174.1,103.642q2.558-.36,5.115-.74v-1.963c0-1.249-1.15-1.755-2.538-1.555s-2.577,1.046-2.577,2.3Z" transform="translate(-126.886 -71.094)" fill="#ffc400"/>
      <path id="패스_2117" data-name="패스 2117" d="M301.7,62.941q5.412-.9,10.825-1.775V71.693c0,5.457-4.956,8.22-11.023,9.23s-11.222-.1-11.221-5.566V56.694c0-5.456,4.956-8.238,11.023-9.245s11.023.154,11.023,5.613v3.676q-4.163.671-8.326,1.362,0-1.249,0-2.5c0-1.392-1.15-1.95-2.7-1.694s-2.7,1.2-2.7,2.589V72.8c0,1.391,1.348,1.917,2.895,1.661s2.894-1.228,2.894-2.62V68.382l-2.7.446Z" transform="translate(-221.651 -35.98)" fill="#ffc400"/>
      <path id="패스_2118" data-name="패스 2118" d="M400.48,56.552V66.757c0,1.25.556,1.77,1.983,1.309q1.765-.476,3.529-.944V55.74q3.965-.568,7.93-1.082V75.925c0,4.817-5.314,7.211-10.666,8.01-5.314.783-10.508-.094-10.508-4.913V77.274q4.064-.648,8.129-1.263v.714c0,1.249,1.15,1.682,2.538,1.478s2.577-.981,2.577-2.231v-3.39q-2.835.906-5.67,1.836c-5.472,1.87-7.574-.352-7.574-3.781V57.755q3.866-.617,7.732-1.2" transform="translate(-299.895 -41.736)" fill="#ffc400"/>
      <path id="패스_2119" data-name="패스 2119" d="M513.793,70.744q-3.965.26-7.931.62V69.9q-2.775.875-5.551,1.793c-5.63,1.961-7.771-.168-7.771-4.066V46.717q3.966-.492,7.93-.91V63.256c0,1.249.04,1.884,1.983,1.4q1.7-.438,3.41-.859V45.279q3.965-.359,7.931-.62Z" transform="translate(-376.094 -34.101)" fill="#ffc400"/>
      <path id="패스_2120" data-name="패스 2120" d="M595.852,17.433q4.163-.228,8.326-.328v32.08q-4.163.1-8.326.329Z" transform="translate(-454.981 -13.061)" fill="#ffc400"/>
    </g>
  </g>
</svg>
