<svg xmlns="http://www.w3.org/2000/svg" xmlns:xlink="http://www.w3.org/1999/xlink" width="425.516" height="243" viewBox="0 0 425.516 243">
  <defs>
    <clipPath id="clip-path">
      <rect id="사각형_183" data-name="사각형 183" width="255" height="243" transform="translate(0 0)" fill="none"/>
    </clipPath>
    <clipPath id="clip-path-2">
      <rect id="사각형_188" data-name="사각형 188" width="182.516" height="118.812" fill="none"/>
    </clipPath>
    <clipPath id="clip-path-3">
      <rect id="사각형_198" data-name="사각형 198" width="58.327" height="49.531" fill="none"/>
    </clipPath>
    <clipPath id="clip-path-5">
      <rect id="사각형_189" data-name="사각형 189" width="48.831" height="40.034" fill="none"/>
    </clipPath>
    <clipPath id="clip-path-6">
      <path id="패스_781" data-name="패스 781" d="M12.38,2.537C7.2,3,3.185,7.894,2.591,13s1.623,10.2,4.775,14.3c4.062,5.272,11.2,11.052,18.1,12.006,5.983.828,13.7-8.762,17.051-12.97,2.571-3.227,4.839-6.855,5.481-10.913s-.646-8.615-4.026-11C40.74,2.138,36.131,2.293,32.7,4.276A15.536,15.536,0,0,0,25.9,13.593a19.351,19.351,0,0,0-4.917-7.875A11.8,11.8,0,0,0,13.2,2.5q-.412,0-.824.036" transform="translate(-2.495 -2.501)" fill="none"/>
    </clipPath>
  </defs>
  <g id="그룹_1810" data-name="그룹 1810" transform="translate(-747.242 -3194)">
    <g id="그룹_104" data-name="그룹 104" transform="translate(747.242 3181.891)">
      <g id="그룹_103" data-name="그룹 103" transform="translate(0 12.109)" clip-path="url(#clip-path)">
        <path id="패스_700" data-name="패스 700" d="M165.483,626.3s-2.205,79.9-12.6,116.7h27.375s11.45-34.009,10.067-81.569l-1.638-26.912Z" transform="translate(-107.689 -453.164)" fill="#ffe4d0"/>
        <path id="패스_701" data-name="패스 701" d="M207.2,239.937c.307-3.669,1.739-3.425,4.717-5.08,4.291-2.384,8.325-4.815,13.063-6.169,3.562-1.018,7.553-3.219,11.249-3.629,6.156-.683,15.691-2.149,19.232-8.345.884-1.548,1.326-3.52,2.177-5.081.7-1.285,1.758-2.161,2.177-3.628,1.064-3.726,3.038-9.189,2.177-13.064-.716-3.22-2.281-6.067-2.54-9.435-.6-7.808.271-15.857.726-23.586.467-7.947,1.1-15.271,4.717-22.5,4.4-8.793,12.068-16.226,19.594-22.5,2.655-2.212,5.919-5.1,9.435-5.805,3.371-.675,6.184,1.665,9.072,2.9,6.11,2.618,11.64,5.827,14.637,12.143,2.4,5.061,3.848,15.183,4.143,20.216.759,12.9-1.617,28.215-4.376,40.778-.122.555-7.518,13.187-6.058,20.48.935,4.68,8.6,6.634,12.337,7.257,11.777,1.963,23.168,4.8,34.473,7.621,3.518.88,5.7,1.588,8.709,3.991,1.685,1.348,4.72,2.529,3.992,5.443-.66,2.642-4.921,2.41-6.895,2.9-7.548,1.886-15.127,5.666-22.5,8.345-5.467,1.988-11.231,3.1-16.692,5.081-6.208,2.257-13.407,5.441-19.958,6.169-20.6,2.289-41.812,3.6-62.05-2.178-5.488-1.568-11.267-1.911-16.692-3.266-3.716-.93-7.225-2.714-10.886-3.629-3.192-.8-8.284-1.84-7.983-5.443" transform="translate(-145.937 -90.198)" fill="#ffe4d0" fill-rule="evenodd"/>
        <path id="패스_702" data-name="패스 702" d="M186.028,509.956l-1.036,13.931s8.351,4.26,9.681,5.107c3.33,2.118,6.009,2.217,7.052,6.39.722,2.886,0,5.795.363,8.709,1.158,9.267-.051,18.627.725,27.94.294,3.523,1.675,7.249,2.9,10.523a27.769,27.769,0,0,1,1.089,6.533c.737,6.629,2.9,12.43,2.9,19.231,0,4.784.433,9.75,0,14.514a76.5,76.5,0,0,0,.566,14.318s11.408,3.137,17.058,2.9c11.759-.5,17.39-4.8,30.06-4.8,11.98,0,18.543,2.825,27.74,4.307a92.194,92.194,0,0,0,26.83.828c8.694-1.076,18.165-4.088,19.047-4.968,3.131-3.132-3.405-16.61-3.561-20.37C326.884,601.5,332,582.5,332,582.5s4.2-12.17,6.886-18.086c6-13.2,17.869-42.555,17.869-42.555s.572-5.428,1.071-8.175a61.81,61.81,0,0,0,.5-12.943,60.617,60.617,0,0,0-1.682-9.628c-.4-2.2-2.167-6.021-4.924-7.426-9-4.586-27.87-6.307-27.87-6.307s-4.984,3.663-7.528,4.519c-2.875.968-16.454,6.182-19.37,7.08-8.591,2.643-32.094,4.065-40.625,4.065a105.687,105.687,0,0,1-24.234-3.309,74.373,74.373,0,0,1-14.676-5.651s-17.6,3.923-24.249,9.672c-5.436,6-7.145,16.2-7.145,16.2" transform="translate(-130.306 -348.269)" fill="#c9d6ba" fill-rule="evenodd"/>
        <path id="패스_703" data-name="패스 703" d="M499.083,595.836s-4.292-2.664-5.473-1.74c-1.5,1.174.227,4.716.7,5.907,1.021,2.553,5.215,7.338,5.215,7.338s-3.287,1.481-2.247,3.291c1.164,2.024,6.827,4.968,8.223,6.484a21.683,21.683,0,0,0,8.211,4.478,3.176,3.176,0,0,0,3.157-.772,81.654,81.654,0,0,0,7.378,5.605,6.738,6.738,0,0,0,3.912.66s5.8,10.075,10.961,13.94c1.72,1.289,5.1,4.162,7.376,4.487,7.925,1.133,12.08-4.893,14.585-10.9,1.867-4.485,4.645-8.891,6.813-13.227,2.935-5.87,3.312-18.324,3.991-23.373.788-5.859,1.864-13.356,1.864-13.356s-3.576-2.691-7.234-3.048a15.131,15.131,0,0,0-7.4,1.622s.635-1.924-.032-2.491c-1.488-1.267,4.024-9.675,4.024-9.675s.3-3.4-1.925-4.442c-2.311-1.084-6.217,3.08-6.217,3.08l-8.925,41.21a43.807,43.807,0,0,0-5.484.07c-1.49.11-4.748.988-5.82,2.352-1.138,1.449-.044,3.388-.044,3.388l-9.649-.1s-6.137-2.7-7.441-2.956a14.071,14.071,0,0,0-3.942.033,34.185,34.185,0,0,1-5.489-3.683c-1.68-1.454-6.526-7.05-7.724-9.676a24.834,24.834,0,0,1-1.37-4.5" transform="translate(-347.27 -411.004)" fill="#ffe4d0" fill-rule="evenodd"/>
        <path id="패스_704" data-name="패스 704" d="M521.9,576.629c.374-.3-2.579,2.214-3.42,2.879a23.853,23.853,0,0,0-5.419,7.336c-3.126,6.6-2.883,12.446-.468,19.132,1.032,2.86,3.132,5.54,6.424,8.371,2.227,1.916,6.545,3.379,6.545,3.379a12.7,12.7,0,0,1,7.037.512,38.3,38.3,0,0,1,4.258,2.032l9.883-.231s-.217-2.548,1.923-2.968c1.635-.32,5.678-1.442,5.678-1.442l5.16-.112s6.718-4.244,10.1-10.8c2.953-5.72,1.281-13.665.606-17.139-.585-3-2.93-4.82-4.916-7.288-6.3-7.835-21.77-10.054-31.781-8.469-3.149.5-11.611,4.8-11.611,4.8" transform="translate(-359.762 -414.457)" fill="#ffad3b" fill-rule="evenodd"/>
        <path id="패스_705" data-name="패스 705" d="M374.9,176.662a24.513,24.513,0,0,0,2.414-8.1c.445-4.245-1.142-9.424-2.642-11.424-4.507-6.009-13.3-12.172-15.035-19.967-1.87-8.412,2.516-13.936.455-22.176-1.66-6.641-2.483-5.34-5.455-11.566-.929-1.945-.558-6.385-.616-10.381-.082-5.678-2.043-15.055-3.559-20.534-.788-2.85-4.185-8.6-7.861-12.683a41.774,41.774,0,0,0-9.013-6.873C328.162,50.1,322,51.581,319.4,51.122c-5.925-1.049-11.591-2.812-16.821-2.159-4.839.605-10.615,3.173-14.54,5.789-5.807,3.872-8.2,8.314-11.751,14.532-.966,1.69-3.523,20.455-3.523,20.455s-1.488-1.1-1.739,1.634c-.225,2.461.513,3.388.513,3.388s-3.431,9.551-4.029,15.532a109.834,109.834,0,0,0-.467,14.656c.117,4.146-.526,10.92-.526,12.846a36.386,36.386,0,0,1-2.786,11.18c-2.917,6.8-11.709,15.078-16.128,18.281-2.314,1.679-4.074,5.793-4.529,8.561-.663,4.032.387,10.218.387,10.218s6.281-1.782,8.093-2.234c4.134-1.034,7.809-1.7,12.178-2.516,7.659-1.428,16.271-3.688,22.2-11.6.987-1.316,3.569-8.3,3.612-14.807a161.064,161.064,0,0,0-1.883-21.495l1.046-5.166s.2-3.567.2-12.292a59.552,59.552,0,0,1,1.777-14.007c.9-3.594,6.408-6.312,8.466-9.193,5.416-7.583,8.255-14.966,15.58-20.828,3.254-2.6,7.48-.57,10.855,0,3.462.586,6.349-1,9.333.691,2.8,1.591,5.753,6.4,7.149,8.9,5.334,9.549,4.837,23.479,4,33.5-.327,3.918-1.112,11.482-1.874,15.291a112.725,112.725,0,0,1-3.949,13.013c-2.454,6.747-8.354,14.48-8.354,14.48a12.206,12.206,0,0,0,2.481,5.924,28.676,28.676,0,0,0,11.89,8.491c6.233,2.077,12.362,2.214,18.895,3.519,2.766.554,9.744.952,9.744.952" transform="translate(-171.065 -46.4)" fill="#daa278" fill-rule="evenodd"/>
        <path id="패스_706" data-name="패스 706" d="M474.221,351.745c-1.542.18,1.932,4.79,2.979,5.575,2.024,1.519,4.51,2.739,7.085,2.1,1.164-.291,1.547.774,4.352-1.789s3.679-6.91,3.679-6.91-8.117-.7-10.636-.522c-2.6.181-5.149,1.281-7.458,1.55" transform="translate(-333.761 -258.663)" fill="#fff" fill-rule="evenodd"/>
        <path id="패스_707" data-name="패스 707" d="M678.445,127.622s-.088-6.836-2.073-8.821-5.91-2.427-5.91-2.427,3.539-.07,5.525-2.055,2.458-9.158,2.458-9.158.329,7.077,2.313,9.061,5.584,2.152,5.584,2.152-3.84.3-5.824,2.284-2.073,8.965-2.073,8.965" transform="translate(-472.263 -86.084)" fill="#704c32" fill-rule="evenodd"/>
        <path id="패스_708" data-name="패스 708" d="M654.281,204.823s-.074-5.811-1.761-7.5-5.022-2.064-5.022-2.064,3.008-.059,4.695-1.747,2.089-7.783,2.089-7.783.28,6.015,1.967,7.7,4.745,1.829,4.745,1.829-3.263.254-4.951,1.94-1.762,7.621-1.762,7.621" transform="translate(-456.087 -142.838)" fill="#704c32" fill-rule="evenodd"/>
        <path id="패스_709" data-name="패스 709" d="M258.139,143.176s.1-7.716,2.34-9.956,6.67-2.741,6.67-2.741-3.995-.078-6.235-2.318-2.775-10.337-2.775-10.337-.371,7.988-2.612,10.229-6.3,2.427-6.3,2.427,4.334.337,6.574,2.577,2.34,10.12,2.34,10.12" transform="translate(-175.55 -95.003)" fill="#704c32" fill-rule="evenodd"/>
        <path id="패스_710" data-name="패스 710" d="M597.15,596.432a3.733,3.733,0,0,1-1.334-.214,1.594,1.594,0,0,1-1.168-1.205,1.838,1.838,0,0,1,.887-1.595,4.31,4.31,0,0,1,3.324-.655.805.805,0,0,1-.312,1.58,2.786,2.786,0,0,0-2.038.356l-.05.039a5.443,5.443,0,0,0,2.677-.266A3.262,3.262,0,0,0,600.8,593a.8.8,0,1,1,1.415.768,4.881,4.881,0,0,1-2.487,2.2,8.249,8.249,0,0,1-2.579.461" transform="translate(-418.852 -429.417)" fill="#704c32"/>
        <path id="패스_711" data-name="패스 711" d="M459.043,259.108a.794.794,0,0,1-.3.14,3.855,3.855,0,0,1-2.568-.657,11.4,11.4,0,0,0-1.206-.555,5.538,5.538,0,0,0-4.769.427.8.8,0,0,1-.836-1.376,7.14,7.14,0,0,1,6.159-.561,12.775,12.775,0,0,1,1.38.63,3.229,3.229,0,0,0,1.474.525.8.8,0,0,1,.665,1.428" transform="translate(-316.251 -192.385)" fill="#704c32"/>
        <path id="패스_712" data-name="패스 712" d="M551.174,257.782a.807.807,0,0,1-.963,0c-.923-.686-2.607-1.212-5.389.166a3.646,3.646,0,0,1-2.656.152.806.806,0,0,1,.273-1.421.8.8,0,0,1,.42,0,3.084,3.084,0,0,0,1.247-.169c3.512-1.741,5.78-.971,7.065-.018a.8.8,0,0,1,0,1.291" transform="translate(-381.668 -191.961)" fill="#704c32"/>
        <path id="패스_713" data-name="패스 713" d="M550.793,155.9h-.027a.8.8,0,0,1-.779-.831c.127-3.937-.392-12.045-2.324-17.043-1.908-4.937-7.346-14.145-14.256-13.724a.8.8,0,0,1-.854-.752.8.8,0,0,1,.752-.854c7.854-.524,13.8,9.432,15.86,14.75,2.272,5.878,2.525,14.752,2.431,17.676a.805.805,0,0,1-.8.779" transform="translate(-375.121 -98.419)" fill="#704c32"/>
        <path id="패스_714" data-name="패스 714" d="M429.971,344.753c-12.668,0-24.888-12.92-29.617-25.929a.805.805,0,1,1,1.513-.55c4.586,12.611,17.082,25.691,29.287,24.828,12.445-.879,21.689-19.939,24.069-37.427a.815.815,0,0,1,.907-.689.806.806,0,0,1,.689.907c-2.465,18.116-12.258,37.877-25.55,38.816-.432.03-.866.045-1.3.045" transform="translate(-281.969 -226.834)" fill="#704c32"/>
        <path id="패스_715" data-name="패스 715" d="M512.413,271.547a.8.8,0,0,1-.273-1.562c1.246-.449,2.564-1.958,2.564-2.935a6.1,6.1,0,0,0-1.417-2.941,13.366,13.366,0,0,1-1.74-3.082,9.654,9.654,0,0,1,1.414-8.854.805.805,0,1,1,1.25,1.015,7.964,7.964,0,0,0-1.146,7.3,11.991,11.991,0,0,0,1.546,2.7c.876,1.266,1.7,2.462,1.7,3.857,0,1.8-1.916,3.833-3.629,4.449a.794.794,0,0,1-.273.048" transform="translate(-359.977 -189.427)" fill="#704c32"/>
        <path id="패스_716" data-name="패스 716" d="M543.968,222.6a.805.805,0,0,1-.452-1.472c2.2-1.482,5.023-1.508,6.72-.064a.8.8,0,1,1-1.043,1.227,4.074,4.074,0,0,0-4.775.171.8.8,0,0,1-.45.138" transform="translate(-382.595 -166.974)" fill="#704c32"/>
        <path id="패스_717" data-name="패스 717" d="M453.627,223.639a.8.8,0,0,1-.443-1.477,8.134,8.134,0,0,1,7.337-.38.8.8,0,1,1-.72,1.44,6.561,6.561,0,0,0-5.731.285.8.8,0,0,1-.442.133" transform="translate(-318.961 -167.74)" fill="#704c32"/>
        <path id="패스_718" data-name="패스 718" d="M524.474,616.281a.981.981,0,0,1-.33-.057c-7.441-2.656-12.932-7.592-14.688-13.2-2.271-7.256-2.7-13.739,2.558-21.791,5.209-7.972,13.907-12.519,25.153-13.149,12.1-.684,22.233,3.237,27.8,10.74,5.9,7.951,6.936,17.265,2.772,24.916-.052.094-5.461,9.505-12.3,10.243a.8.8,0,0,1-.907-.545c-.06-.349.249-.67.689-.717,5.186-.559,10.027-7.623,11.039-9.484,3.963-7.28,2.96-16.165-2.681-23.768-5.247-7.07-14.828-10.765-26.3-10.114-10.656.6-18.9,4.907-23.838,12.463-5.032,7.7-4.609,13.923-2.424,20.9.614,1.962,3.421,8.649,13.786,12.349a.591.591,0,0,1,.4.843.84.84,0,0,1-.734.375" transform="translate(-357.723 -412.104)" fill="#704c32"/>
        <path id="패스_719" data-name="패스 719" d="M601.549,734.879a42.608,42.608,0,0,1-4.328-.214.8.8,0,1,1,.162-1.6,45.973,45.973,0,0,0,10.415-.2.806.806,0,0,1,.2,1.6,51.345,51.345,0,0,1-6.453.421" transform="translate(-420.163 -528.223)" fill="#704c32"/>
        <path id="패스_720" data-name="패스 720" d="M704.722,579.765a.73.73,0,0,1-.159-.017.8.8,0,0,1-.631-.947,16.266,16.266,0,0,1,2.222-4.667c1.353-2.251,2.752-4.579,2.292-6.361-.411-1.592-1.269-1.684-1.551-1.714-1.665-.178-4.187,1.75-4.818,3.01a.805.805,0,0,1-1.44-.721c.876-1.749,3.954-4.145,6.429-3.89.84.089,2.34.587,2.94,2.911.628,2.437-.947,5.059-2.47,7.594a15.355,15.355,0,0,0-2.024,4.155.805.805,0,0,1-.789.647" transform="translate(-493.457 -409.593)" fill="#704c32"/>
        <path id="패스_721" data-name="패스 721" d="M643.129,712.885c-2.858,0-11.446-1.177-12.584-2.445a2.663,2.663,0,0,1-.658-2.811c.735-1.917,3.869-3.211,6.585-3.5a32.125,32.125,0,0,1,4.607-.162,16.605,16.605,0,0,0,2.313-.053.806.806,0,0,1,.179,1.6,18.3,18.3,0,0,1-2.528.06,31.782,31.782,0,0,0-4.4.155c-2.473.262-4.829,1.373-5.252,2.475-.088.231-.148.6.353,1.158.816.644,8.482,2.015,11.612,1.908a5.086,5.086,0,0,0,3.021-.867c1.127-1.013.971-3.393.869-4.968l-.012-.193a12.526,12.526,0,0,1,.094-1.874,7.1,7.1,0,0,0-.066-2.879.8.8,0,1,1,1.461-.676,7.733,7.733,0,0,1,.207,3.709,11.646,11.646,0,0,0-.09,1.617l.012.19c.123,1.885.309,4.735-1.4,6.271a6.724,6.724,0,0,1-4.041,1.279c-.087,0-.181,0-.282,0" transform="translate(-443.566 -504.623)" fill="#704c32"/>
        <path id="패스_722" data-name="패스 722" d="M574.457,737.825a9.6,9.6,0,0,1-4.92-1.741,31.336,31.336,0,0,1-6.864-5.878c-1.24-1.367-2.633-3.211-2.395-5.367a2.261,2.261,0,0,1,1-1.7c1.247-.824,3.2-.372,3.976-.139a23.65,23.65,0,0,1,9.893,5.9A.8.8,0,1,1,574,730.034a22.356,22.356,0,0,0-9.217-5.491,3.715,3.715,0,0,0-2.626-.06.656.656,0,0,0-.284.534c-.168,1.516.974,2.991,1.986,4.108a29.794,29.794,0,0,0,6.512,5.587c1.65,1.007,3.059,1.65,4.548,1.478a4.071,4.071,0,0,0,1.6-.95l.139-.111c1.832-1.466,5.281-6.3,6.58-8.122l.732.36.578.575c-1.459,2.045-4.878,6.838-6.885,8.444l-.135.109a5.125,5.125,0,0,1-2.428,1.3,5.955,5.955,0,0,1-.645.035" transform="translate(-394.632 -521.045)" fill="#704c32"/>
        <path id="패스_723" data-name="패스 723" d="M522.655,719.115c-3.168,0-7.294-3.13-10.262-5.381-.728-.553-1.354-1.028-1.826-1.344l-1.3-.854c-2.238-1.466-3.717-2.436-4.265-3.61a2.248,2.248,0,0,1,.023-2.088,4.445,4.445,0,0,1,3.13-1.874c3.062-.45,5.639,1.017,8.128,2.431.481.274.96.547,1.438.8a.805.805,0,0,1-.759,1.42c-.491-.262-.983-.542-1.476-.823-2.356-1.34-4.587-2.615-7.1-2.238a2.911,2.911,0,0,0-1.946,1.044.651.651,0,0,0,.018.644c.355.76,1.826,1.724,3.689,2.945l1.307.861c.493.328,1.147.824,1.907,1.4,3.025,2.294,8.659,6.567,10.77,4.491a.805.805,0,0,1,1.129,1.148,3.576,3.576,0,0,1-2.611,1.025" transform="translate(-355.545 -507.814)" fill="#704c32"/>
        <path id="패스_724" data-name="패스 724" d="M497.344,671.192a.807.807,0,0,1-.63-.3l-.126-.157a38.329,38.329,0,0,1-6-9.383c-1.113-2.726-.609-4.129.01-4.824a2.723,2.723,0,0,1,2.839-.675,12.208,12.208,0,0,1,4.356,2.626.805.805,0,0,1-1.109,1.167A10.735,10.735,0,0,0,493,657.4a1.167,1.167,0,0,0-1.2.194c-.432.485-.329,1.661.278,3.146a36.984,36.984,0,0,0,5.769,8.984l.126.157a.8.8,0,0,1-.628,1.307" transform="translate(-345.097 -473.89)" fill="#704c32"/>
        <path id="패스_725" data-name="패스 725" d="M586.617,551.792a11.225,11.225,0,0,1-4.983-1.136c-4.369-2.147-10.485-7.313-14.3-14.013a.805.805,0,1,1,1.4-.8,35.314,35.314,0,0,0,13.614,13.366c4.223,2.075,9.171.442,10.976-1.482a23.9,23.9,0,0,0,3.6-5.322l.451-.826c.62-1.116,1.222-2.242,1.826-3.37,1.056-1.973,2.148-4.013,3.329-5.982,4.571-7.616,5.423-16.678,6.247-25.442.193-2.054.386-4.1.623-6.117.359-3.055.824-6.121,1.274-9.086,1.492-9.837,2.9-19.129.939-28.932a18.469,18.469,0,0,0-1.546-4.645c-3.484-6.968-10.977-8.364-18.225-9.715-.9-.167-1.786-.334-2.662-.508-1.319-.264-3.388-.469-6.006-.728-11.151-1.1-29.813-2.95-36.176-13.468a.8.8,0,1,1,1.377-.833c5.946,9.828,24.819,11.7,34.958,12.7,2.663.263,4.766.472,6.163.751.869.174,1.752.339,2.641.5,7.279,1.356,15.529,2.894,19.37,10.577a20.08,20.08,0,0,1,1.685,5.049c2.017,10.081.521,19.948-.926,29.491-.447,2.951-.91,6-1.267,9.033-.236,2-.427,4.038-.619,6.079-.841,8.942-1.711,18.19-6.469,26.119-1.162,1.935-2.244,3.958-3.29,5.914-.607,1.135-1.214,2.269-1.838,3.391l-.443.812a25.546,25.546,0,0,1-3.841,5.655,11.358,11.358,0,0,1-7.878,2.961" transform="translate(-385.212 -316.564)" fill="#704c32"/>
        <path id="패스_726" data-name="패스 726" d="M210.732,427.617a.8.8,0,0,1-.569-1.373c6.543-6.543,17.5-8.67,26.3-10.377.857-.166,1.693-.328,2.5-.49.566-.113,1.238-.226,1.993-.352,8.952-1.493,27.578-4.6,24.57-31.993a.8.8,0,0,1,1.6-.176c3.175,28.905-17.2,32.3-25.9,33.757-.736.122-1.391.232-1.943.342-.811.163-1.65.325-2.509.491-8.586,1.667-19.272,3.74-25.466,9.934a.8.8,0,0,1-.569.236" transform="translate(-147.869 -281.185)" fill="#704c32"/>
        <path id="패스_727" data-name="패스 727" d="M667.832,896.728a.824.824,0,0,1-.255-.042.805.805,0,0,1-.509-1.018c1.159-3.478.072-6.385-1.306-10.066a35.942,35.942,0,0,1-2.772-11.7c-.33-7.371,1.2-14.233,2.438-19.746.527-2.355,1.024-4.579,1.3-6.495a.8.8,0,0,1,1.593.228c-.282,1.978-.786,4.232-1.319,6.618-1.212,5.42-2.721,12.165-2.4,19.324a34.623,34.623,0,0,0,2.671,11.2c1.43,3.821,2.665,7.121,1.326,11.138a.806.806,0,0,1-.764.552" transform="translate(-466.968 -608.606)" fill="#704c32"/>
        <path id="패스_728" data-name="패스 728" d="M253.109,695.74a.806.806,0,0,1-.792-.667c-.928-5.315-1.061-18.49-1.188-31.23-.116-11.61-.237-23.615-.957-29.38a86.314,86.314,0,0,0-2.16-10.779,78.628,78.628,0,0,1-2.311-12.315c-.78-8.11.738-15.3,1.957-21.072.191-.9.374-1.771.542-2.608.187-.936.411-1.931.648-2.994,1.324-5.9,3.137-13.975,1.35-24.547a.805.805,0,1,1,1.588-.267c1.84,10.884-.014,19.14-1.367,25.167-.235,1.049-.456,2.033-.641,2.956-.169.844-.354,1.72-.545,2.627-1.2,5.668-2.686,12.721-1.93,20.585a76.271,76.271,0,0,0,2.271,12.08,87.44,87.44,0,0,1,2.2,10.969c.733,5.857.853,17.908.97,29.564.127,12.676.258,25.784,1.164,30.968a.8.8,0,0,1-.654.932.85.85,0,0,1-.139.013" transform="translate(-172.917 -405.909)" fill="#704c32"/>
        <path id="패스_729" data-name="패스 729" d="M358.794,148.882c-4.5,0-9.167-.577-13.018-4.428a.805.805,0,0,1,1.139-1.138c3.512,3.513,7.945,3.99,12.148,3.956a15.552,15.552,0,0,0,9.242-3.53c5.145-4.288,8.458-9.709,11.965-15.448l.277-.455c2.157-3.557,7.207-11.886,14.038-8.575a.805.805,0,0,1-.7,1.449c-5.518-2.678-9.866,4.509-11.959,7.96l-.28.46c-3.421,5.6-6.959,11.386-12.308,15.845a17.006,17.006,0,0,1-10.265,3.9h-.276" transform="translate(-243.394 -95.481)" fill="#704c32"/>
        <path id="패스_730" data-name="패스 730" d="M342.059,88.5h-.043a.8.8,0,0,1-.761-.846c.7-13.254,1.634-21.9,11.672-32.221a30.168,30.168,0,0,1,33.048-7.356.8.8,0,1,1-.629,1.482,28.549,28.549,0,0,0-31.265,7c-9.637,9.907-10.541,18.3-11.219,31.183a.805.805,0,0,1-.8.763" transform="translate(-240.373 -44.367)" fill="#704c32"/>
        <path id="패스_731" data-name="패스 731" d="M543.907,104.093c-.025,0-.052,0-.079,0a.8.8,0,0,1-.723-.879c1.222-12.527-1.43-30.852-12.926-41.269-.094-.085-9.4-8.418-16.515-6.612a.8.8,0,0,1-.4-1.561c7.955-2.016,17.586,6.611,17.992,6.979,11.938,10.818,14.7,29.72,13.447,42.618a.806.806,0,0,1-.8.727" transform="translate(-361.111 -49.67)" fill="#704c32"/>
        <path id="패스_732" data-name="패스 732" d="M644,305.1a.806.806,0,0,1-.764-1.057c2.074-6.306-1.155-10.98-2.534-12.975l-.312-.456a41.371,41.371,0,0,0-5.887-6.552c-3.4-3.28-6.912-6.672-8.345-11.689-1.193-4.174-.708-8.591-.239-12.863.111-1.005.22-2,.305-2.979.424-4.862-.369-12.15-4-16.686a.8.8,0,0,1,1.256-1.006c3.927,4.908,4.8,12.674,4.346,17.832-.086.99-.2,2-.308,3.016-.452,4.117-.92,8.374.187,12.245,1.315,4.6,4.521,7.7,7.916,10.972a42.589,42.589,0,0,1,6.109,6.818l.3.434c1.514,2.193,5.063,7.328,2.738,14.394a.8.8,0,0,1-.764.554" transform="translate(-438.16 -180.029)" fill="#704c32"/>
        <path id="패스_733" data-name="패스 733" d="M240.673,288.43a.8.8,0,0,1-.8-.743c-.729-9.474,5.281-14.279,9.67-17.787.968-.774,1.883-1.505,2.622-2.2,4.668-4.409,10.185-10.891,11.417-21.978a121.588,121.588,0,0,0,.406-12.695c0-10.378-.009-22.139,4.5-31.563a.8.8,0,0,1,1.452.7c-4.354,9.093-4.35,20.66-4.345,30.866a122.626,122.626,0,0,1-.417,12.873c-1.289,11.607-7.042,18.373-11.91,22.97-.788.745-1.728,1.5-2.723,2.291-4.337,3.467-9.734,7.782-9.071,16.406a.8.8,0,0,1-.741.864c-.021,0-.042,0-.062,0" transform="translate(-168.919 -153.595)" fill="#704c32"/>
        <path id="패스_734" data-name="패스 734" d="M360.782,290.093l-.055,0a.8.8,0,0,1-.749-.858c.677-10.043,2.914-14.417,5.283-19.047a43.576,43.576,0,0,0,4.406-11.605,48.894,48.894,0,0,0,.926-13.927,43.33,43.33,0,0,1,1.553-15.806.8.8,0,0,1,1.546.448,41.988,41.988,0,0,0-1.49,15.289,50.255,50.255,0,0,1-.963,14.342A44.932,44.932,0,0,1,366.7,270.92c-2.292,4.479-4.455,8.709-5.11,18.423a.805.805,0,0,1-.8.751" transform="translate(-253.562 -172.799)" fill="#704c32"/>
        <path id="패스_735" data-name="패스 735" d="M507.377,80.567a.8.8,0,0,1-.8-.8c0-3.977-1.059-9.782-4.032-14.15a.8.8,0,0,1,1.331-.905c3.178,4.67,4.311,10.839,4.311,15.055a.8.8,0,0,1-.805.8" transform="translate(-353.883 -57.341)" fill="#704c32"/>
        <path id="패스_736" data-name="패스 736" d="M341.789,166.029a26.819,26.819,0,0,1-2.893-.143.8.8,0,1,1,.178-1.6,28.524,28.524,0,0,0,7.994-.348c5.184-1.209,9.283-3.792,13.294-8.375a.8.8,0,0,1,1.212,1.06c-4.246,4.852-8.607,7.592-14.14,8.884a27.3,27.3,0,0,1-5.644.523" transform="translate(-238.208 -121.393)" fill="#704c32"/>
        <path id="패스_737" data-name="패스 737" d="M338.155,492.755c-19.653,0-36.438-4.156-44.921-9.233a.805.805,0,0,1,.827-1.382c16.715,10,66.33,16.334,105.7-6.669a.805.805,0,0,1,.812,1.39c-20.008,11.69-42.66,15.893-62.415,15.893" transform="translate(-206.274 -346.848)" fill="#704c32"/>
        <path id="패스_738" data-name="패스 738" d="M728.761,620.019a.8.8,0,0,1-.478-.157c-2.529-1.869-9.414-3.974-13.559-1.335a.8.8,0,1,1-.865-1.357c4.825-3.069,12.461-.759,15.381,1.4a.8.8,0,0,1-.479,1.452" transform="translate(-502.569 -445.691)" fill="#704c32"/>
        <path id="패스_739" data-name="패스 739" d="M205.036,643.42c-2.842,0-9.81-2.88-14.9-5.331-1.512-.727-8.3-2.661-4.834-3.748.425-.133,5.481,2.209,5.831,2.485,4.09,3.226,11.332,4.985,13.907,4.985a.8.8,0,1,1,0,1.609" transform="translate(-129.835 -458.827)" fill="#704c32"/>
        <path id="패스_740" data-name="패스 740" d="M481.682,358.681a10.789,10.789,0,0,1-7.892-4.017c-1.156-1.326-2.384-3.338-2.044-4.645.179-.693.8-1.474,5.955-1.967.128-.013,12.994-1.08,13.928.881h0c.512,1.076-.4,2.935-.81,3.684-1.441,2.607-4.362,5.556-8.237,6.012a7.675,7.675,0,0,1-.9.052m-8.389-8.151A6.351,6.351,0,0,0,475,353.606c.8.913,3.686,3.851,7.39,3.424,3.473-.409,5.691-3.161,6.483-4.326a7,7,0,0,0,1.3-2.945c-2.075-.7-15.176-.42-16.883.772" transform="translate(-332.25 -256.961)" fill="#704c32"/>
        <path id="패스_741" data-name="패스 741" d="M191.739,564.366l.2-.884-7.2-3.836-.57-.932s-.972-16.8,8.369-28.934l-.349-1.855s-9.626,7.485-9.315,32.5" transform="translate(-128.807 -383.872)" fill="#704c32"/>
        <path id="패스_742" data-name="패스 742" d="M160.729,639.781S157,720.258,151.1,741.387l-3.418,10.122h1.538s4.573-6.912,6.644-28.869l2.434-20.766,4.143-58.1v-4.555l-1.657-.83Z" transform="translate(-104.023 -461.678)" fill="#704c32"/>
      </g>
    </g>
    <g id="그룹_106" data-name="그룹 106" transform="translate(990.242 3239.041)">
      <g id="그룹_105" data-name="그룹 105" clip-path="url(#clip-path-2)">
        <path id="패스_743" data-name="패스 743" d="M214.933,438.3s-11.734,31.432-40.951,31.432c-.126,0,10.843-13.306,5.509-31.432Z" transform="translate(-139.296 -350.925)" fill="#f2d4c4"/>
        <path id="패스_744" data-name="패스 744" d="M63.567,129.165V92.471A20.558,20.558,0,0,1,84.124,71.914H212.853A20.557,20.557,0,0,1,233.41,92.471v36.694a20.557,20.557,0,0,1-20.557,20.557H84.124a20.557,20.557,0,0,1-20.557-20.557" transform="translate(-50.894 -57.577)" fill="#f2d4c4"/>
        <path id="패스_745" data-name="패스 745" d="M57.271,143.08h-.607l-.279-.54a1.128,1.128,0,0,1,.229-1.266,35.888,35.888,0,0,0,6.364-24.862h-6.6A22.137,22.137,0,0,1,34.263,94.3V58.721A22.136,22.136,0,0,1,56.374,36.61H183.989A22.135,22.135,0,0,1,206.1,58.721V94.3a22.136,22.136,0,0,1-22.109,22.112H96.611a59.361,59.361,0,0,1-12.779,16.382A39.389,39.389,0,0,1,57.271,143.08M56.374,38.6A20.141,20.141,0,0,0,36.257,58.721V94.3a20.141,20.141,0,0,0,20.118,20.118H64.7l.129.846a37.651,37.651,0,0,1-5.655,25.775c20.581-1.024,31.952-18.462,35.955-26.087l.28-.533h88.58A20.14,20.14,0,0,0,204.105,94.3V58.721A20.14,20.14,0,0,0,183.989,38.6Z" transform="translate(-27.432 -29.311)" fill="#a0612f"/>
        <rect id="사각형_184" data-name="사각형 184" width="1.994" height="24.499" transform="translate(0 38.43)" fill="#a0612f"/>
        <rect id="사각형_185" data-name="사각형 185" width="1.994" height="7.572" transform="translate(0 22.948)" fill="#a0612f"/>
        <rect id="사각형_186" data-name="사각형 186" width="24.499" height="1.994" transform="translate(123.591)" fill="#a0612f"/>
        <rect id="사각형_187" data-name="사각형 187" width="7.572" height="1.994" transform="translate(156.001)" fill="#a0612f"/>
      </g>
    </g>
    <g id="그룹_117" data-name="그룹 117" transform="translate(1059.586 3268.469)">
      <g id="그룹_116" data-name="그룹 116" clip-path="url(#clip-path-3)">
        <g id="그룹_111" data-name="그룹 111" transform="translate(0 0)">
          <g id="그룹_110" data-name="그룹 110" clip-path="url(#clip-path-3)">
            <g id="그룹_109" data-name="그룹 109" transform="translate(9.497 9.497)" opacity="0.2">
              <g id="그룹_108" data-name="그룹 108">
                <g id="그룹_107" data-name="그룹 107" clip-path="url(#clip-path-5)">
                  <path id="패스_746" data-name="패스 746" d="M45.334,60.958a7.914,7.914,0,0,0,1.087.077c3.263,0,8.25-2.124,17.419-13.628,2.123-2.664,5.034-6.77,5.807-11.652.8-5.048-1.037-9.972-4.676-12.543A12.243,12.243,0,0,0,52,22.989a16.1,16.1,0,0,0-6.09,6.6,18.5,18.5,0,0,0-3.773-4.954,13.035,13.035,0,0,0-9.806-3.589c-5.67.5-10.494,5.6-11.222,11.861C20.53,37.855,22.338,43.34,26.2,48.35c3.962,5.143,11.351,11.532,19.136,12.608" transform="translate(-21 -21.001)" fill="#a83c02"/>
                </g>
              </g>
            </g>
          </g>
        </g>
        <g id="그룹_113" data-name="그룹 113" transform="translate(1.128 1.131)">
          <g id="그룹_112" data-name="그룹 112" clip-path="url(#clip-path-6)">
            <path id="패스_747" data-name="패스 747" d="M26.312,1.7,1.4,13.14V1.7Z" transform="translate(-1.892 -2.061)" fill="#ff7d77"/>
            <path id="패스_748" data-name="패스 748" d="M28.368,1.7,1.4,14.084V13.14L26.313,1.7Z" transform="translate(-1.893 -2.061)" fill="#ff7d77"/>
            <path id="패스_749" data-name="패스 749" d="M30.422,1.7,1.395,15.027v-.944L28.368,1.7Z" transform="translate(-1.892 -2.061)" fill="#ff7d77"/>
            <path id="패스_750" data-name="패스 750" d="M32.478,1.7,1.4,15.971v-.944L30.423,1.7Z" transform="translate(-1.893 -2.061)" fill="#ff7d77"/>
            <path id="패스_751" data-name="패스 751" d="M34.532,1.7,1.4,16.914v-.943L32.478,1.7Z" transform="translate(-1.892 -2.061)" fill="#ff7d77"/>
            <path id="패스_752" data-name="패스 752" d="M36.588,1.7,1.4,17.858v-.944L34.533,1.7Z" transform="translate(-1.893 -2.061)" fill="#ff7c76"/>
            <path id="패스_753" data-name="패스 753" d="M38.643,1.7,1.395,18.8v-.944L36.588,1.7Z" transform="translate(-1.892 -2.061)" fill="#ff7c76"/>
            <path id="패스_754" data-name="패스 754" d="M40.7,1.7,1.4,19.746V18.8L38.643,1.7Z" transform="translate(-1.892 -2.061)" fill="#ff7b75"/>
            <path id="패스_755" data-name="패스 755" d="M42.753,1.7,1.615,20.589l-.22-.478v-.365L40.7,1.7Z" transform="translate(-1.892 -2.061)" fill="#ff7b75"/>
            <path id="패스_756" data-name="패스 756" d="M45.074,1.7,2.238,21.368l-.358-.779L43.019,1.7Z" transform="translate(-2.158 -2.061)" fill="#ff7a74"/>
            <path id="패스_757" data-name="패스 757" d="M46.3,1.7l.22.479L3.03,22.147l-.358-.779L45.507,1.7Z" transform="translate(-2.592 -2.061)" fill="#ff7a74"/>
            <rect id="사각형_191" data-name="사각형 191" width="47.855" height="0.857" transform="translate(0.437 20.084) rotate(-24.659)" fill="#ff7973"/>
            <rect id="사각형_192" data-name="사각형 192" width="47.855" height="0.857" transform="translate(0.795 20.863) rotate(-24.659)" fill="#ff7972"/>
            <rect id="사각형_193" data-name="사각형 193" width="47.855" height="0.857" transform="translate(1.153 21.643) rotate(-24.659)" fill="#ff7872"/>
            <rect id="사각형_194" data-name="사각형 194" width="47.855" height="0.857" transform="translate(1.511 22.422) rotate(-24.659)" fill="#ff7771"/>
            <rect id="사각형_195" data-name="사각형 195" width="47.855" height="0.857" transform="translate(1.868 23.201) rotate(-24.659)" fill="#ff7670"/>
            <rect id="사각형_196" data-name="사각형 196" width="47.855" height="0.857" transform="translate(2.226 23.98) rotate(-24.659)" fill="#ff756f"/>
            <path id="패스_758" data-name="패스 758" d="M51.7,13.1l.071.154v.757L8.569,33.847l-.358-.779Z" transform="translate(-5.626 -8.306)" fill="#ff756e"/>
            <path id="패스_759" data-name="패스 759" d="M52.2,16.057,9.36,35.73,9,34.951,52.2,15.113Z" transform="translate(-6.06 -9.41)" fill="#ff746d"/>
            <path id="패스_760" data-name="패스 760" d="M52.638,18.143,10.152,37.652l-.358-.779L52.638,17.2Z" transform="translate(-6.493 -10.553)" fill="#ff736c"/>
            <path id="패스_761" data-name="패스 761" d="M53.072,20.23,10.943,39.575l-.358-.779L53.072,19.287Z" transform="translate(-6.927 -11.696)" fill="#ff726b"/>
            <path id="패스_762" data-name="패스 762" d="M53.5,22.317,11.734,41.5l-.358-.78L53.5,21.373Z" transform="translate(-7.36 -12.839)" fill="#ff706a"/>
            <path id="패스_763" data-name="패스 763" d="M53.938,24.4,12.526,43.42l-.358-.779L53.938,23.46Z" transform="translate(-7.793 -13.982)" fill="#ff6f69"/>
            <path id="패스_764" data-name="패스 764" d="M54.372,26.49,13.317,45.342l-.358-.78L54.372,25.547Z" transform="translate(-8.227 -15.125)" fill="#ff6e68"/>
            <path id="패스_765" data-name="패스 765" d="M54.805,28.577l-40.7,18.687-.358-.779L54.805,27.634Z" transform="translate(-8.661 -16.268)" fill="#ff6d67"/>
            <path id="패스_766" data-name="패스 766" d="M55.239,30.664,14.9,49.187l-.358-.779,40.7-18.688Z" transform="translate(-9.094 -17.411)" fill="#ff6c65"/>
            <path id="패스_767" data-name="패스 767" d="M55.673,32.751,15.691,51.109l-.358-.78L55.673,31.807Z" transform="translate(-9.528 -18.554)" fill="#ff6a64"/>
            <path id="패스_768" data-name="패스 768" d="M56.106,34.837,16.482,53.032l-.358-.779L56.106,33.894Z" transform="translate(-9.961 -19.698)" fill="#ff6963"/>
            <path id="패스_769" data-name="패스 769" d="M56.539,36.924,17.274,54.954l-.358-.779L56.539,35.98Z" transform="translate(-10.394 -20.841)" fill="#ff6861"/>
            <path id="패스_770" data-name="패스 770" d="M56.973,39.011,18.065,56.877l-.358-.78,39.265-18.03Z" transform="translate(-10.828 -21.984)" fill="#ff6660"/>
            <path id="패스_771" data-name="패스 771" d="M57.406,41.1,18.856,58.8,18.5,58.02,57.406,40.154Z" transform="translate(-11.262 -23.127)" fill="#ff655e"/>
            <path id="패스_772" data-name="패스 772" d="M57.84,43.184,19.648,60.722l-.358-.779,38.55-17.7Z" transform="translate(-11.695 -24.27)" fill="#ff635d"/>
            <path id="패스_773" data-name="패스 773" d="M58.273,45.271,20.439,62.644l-.358-.78L58.273,44.327Z" transform="translate(-12.129 -25.413)" fill="#ff625b"/>
            <path id="패스_774" data-name="패스 774" d="M58.707,47.358,22.049,64.19h-.991l-.185-.4L58.707,46.414Z" transform="translate(-12.562 -26.556)" fill="#ff605a"/>
            <path id="패스_775" data-name="패스 775" d="M60.132,49.445l-34.6,15.889H23.474L60.132,48.5Z" transform="translate(-13.987 -27.699)" fill="#ff5f58"/>
            <path id="패스_776" data-name="패스 776" d="M62.621,51.531,30.073,66.477H28.018l34.6-15.889Z" transform="translate(-16.476 -28.842)" fill="#ff5d56"/>
            <path id="패스_777" data-name="패스 777" d="M65.11,53.618l-30.493,14H32.563L65.11,52.674Z" transform="translate(-18.966 -29.985)" fill="#ff5b55"/>
            <path id="패스_778" data-name="패스 778" d="M67.6,55.7,39.162,68.763H37.107l30.493-14Z" transform="translate(-21.455 -31.129)" fill="#ff5a53"/>
            <path id="패스_779" data-name="패스 779" d="M70.089,57.792,43.706,69.906H41.652L70.089,56.848Z" transform="translate(-23.944 -32.272)" fill="#ff5851"/>
            <path id="패스_780" data-name="패스 780" d="M46.2,71.049,72.579,58.934V71.049Z" transform="translate(-26.434 -33.415)" fill="#ff5851"/>
          </g>
        </g>
        <g id="그룹_115" data-name="그룹 115" transform="translate(0 0)">
          <g id="그룹_114" data-name="그룹 114" clip-path="url(#clip-path-3)">
            <path id="패스_782" data-name="패스 782" d="M24.827,39.117a6.392,6.392,0,0,1-.883-.06C16.786,38.068,9.324,32.1,5.1,26.621,1.317,21.705-.459,16.337.1,11.5.794,5.55,5.543.516,10.915.041a12.584,12.584,0,0,1,9.461,3.472,18.562,18.562,0,0,1,4.088,5.63A15.917,15.917,0,0,1,30.77,1.927a11.788,11.788,0,0,1,12.487.2c3.5,2.472,5.262,7.223,4.491,12.1-.756,4.777-3.623,8.818-5.714,11.441-3.263,4.095-10.715,13.444-17.207,13.445M11.818,2.262q-.355,0-.7.031c-4.847.429-8.263,5.152-8.765,9.472C1.855,16.009,3.47,20.794,6.9,25.242c3.938,5.112,10.832,10.674,17.359,11.576,5.406.754,13.112-8.917,16.011-12.555,3.069-3.851,4.737-7.151,5.249-10.385.523-3.307-.375-7.652-3.562-9.9A9.624,9.624,0,0,0,31.9,3.885a14.431,14.431,0,0,0-6.284,8.648,1.131,1.131,0,0,1-2.152.072A18.16,18.16,0,0,0,18.85,5.182a10.71,10.71,0,0,0-7.032-2.92" transform="translate(0 0)" fill="#704c32"/>
          </g>
        </g>
      </g>
    </g>
  </g>
</svg>
