<svg xmlns="http://www.w3.org/2000/svg" xmlns:xlink="http://www.w3.org/1999/xlink" width="141.334" height="129.182" viewBox="0 0 141.334 129.182">
  <defs>
    <clipPath id="clip-path">
      <rect id="사각형_296" data-name="사각형 296" width="141.334" height="121.23" fill="#e8e8e8"/>
    </clipPath>
    <clipPath id="clip-path-2">
      <rect id="사각형_297" data-name="사각형 297" width="51.266" height="49.937" fill="none"/>
    </clipPath>
    <clipPath id="clip-path-3">
      <rect id="사각형_298" data-name="사각형 298" width="23.775" height="20.439" fill="none"/>
    </clipPath>
  </defs>
  <g id="그룹_1751" data-name="그룹 1751" transform="translate(-117.333 -104)">
    <g id="그룹_156" data-name="그룹 156" transform="translate(117.333 104)" clip-path="url(#clip-path)">
      <path id="패스_909" data-name="패스 909" d="M132.676,617.217c-8.935-12.656-28.857-19.561-50.383-19.561-18.731,0-64.515,9.059-73.829,19.86C-.554,627.975.007,646.568.007,657.651c0,11.8,1.074,28.653,14.777,36,12.036,6.45,38.366-2.482,55.884-2.482,10.9,0,24.536,6.551,36.161,9.889a54.077,54.077,0,0,1-11.161,17.832,47.549,47.549,0,0,0,30.2-14.416,49.015,49.015,0,0,0,8.4-11.953c4.938-7.745,5.882-17.728,6.778-26.891.918-9.384.019-36.525-8.371-48.41" transform="translate(0 -597.656)" fill="#e8e8e8"/>
    </g>
    <g id="그룹_165" data-name="그룹 165" transform="translate(199.085 174.734)">
      <g id="그룹_162" data-name="그룹 162" transform="translate(0 8.511)">
        <g id="그룹_161" data-name="그룹 161" clip-path="url(#clip-path-2)">
          <path id="패스_910" data-name="패스 910" d="M50.789,97.317a19.855,19.855,0,0,1-7.932,20.418,25.77,25.77,0,0,1-9.617,3.776,31.633,31.633,0,0,1-20.3-2.42c-6.188-3.148-11.122-8.977-12.5-15.784C-5.213,75.3,45.357,74.22,50.789,97.317" transform="translate(0 -72.24)" fill="#f5981e"/>
          <path id="패스_911" data-name="패스 911" d="M244.215,109.121c1.054.18,2.411.764,2.213,1.814-.136.72-.955,1.057-1.661,1.254a4.292,4.292,0,0,1-1.758.224,1.554,1.554,0,0,1-1.319-1.045,1.572,1.572,0,0,1,.8-1.621,4.607,4.607,0,0,1,1.852-.508" transform="translate(-215.373 -97.253)" fill="#3d603b"/>
          <path id="패스_912" data-name="패스 912" d="M373.682,274.75a.977.977,0,0,0,.637-1.689l-.343-.322a.977.977,0,0,0-1.337,1.425l.343.322a.974.974,0,0,0,.7.264" transform="translate(-331.836 -242.84)" fill="#f05725"/>
          <path id="패스_913" data-name="패스 913" d="M309.559,289.046a.977.977,0,0,0,.945-1.008l-.011-.332a.977.977,0,0,0-1.953.063l.011.332a.977.977,0,0,0,1.008.945" transform="translate(-274.983 -255.572)" fill="#f05725"/>
          <path id="패스_914" data-name="패스 914" d="M347.412,324.544a.977.977,0,0,0,.945-1.008l-.011-.332a.977.977,0,0,0-1.953.063l.011.332a.977.977,0,0,0,1.008.945" transform="translate(-308.72 -287.21)" fill="#f05725"/>
          <path id="패스_915" data-name="패스 915" d="M124.039,132.849a.977.977,0,0,0,.945-1.008l-.011-.332a.977.977,0,1,0-1.953.063l.011.332a.977.977,0,0,0,1.008.945" transform="translate(-109.641 -116.363)" fill="#f05725"/>
          <path id="패스_916" data-name="패스 916" d="M73.063,165.079a.977.977,0,0,0,.945-1.008L74,163.739a.977.977,0,1,0-1.953.063l.011.332a.977.977,0,0,0,1.008.945" transform="translate(-64.209 -145.088)" fill="#f05725"/>
          <path id="패스_917" data-name="패스 917" d="M119.7,188.391a.977.977,0,0,0,.945-1.008l-.021-.665a.977.977,0,0,0-1.953.063l.021.665a.977.977,0,0,0,1.008.945" transform="translate(-105.766 -165.569)" fill="#f05725"/>
          <path id="패스_918" data-name="패스 918" d="M238.561,14.839a.977.977,0,0,0,.932-.82c.641-3.949,1.659,1.689,0-1.951a.977.977,0,1,0-1.778.81c1.5,3.293.43-2.744-.151.827a.978.978,0,0,0,1,1.133" transform="translate(-210.404 -1.679)" fill="#433836"/>
        </g>
      </g>
      <g id="그룹_164" data-name="그룹 164" transform="translate(26.638 -0.001)">
        <g id="그룹_163" data-name="그룹 163" transform="translate(0 0)" clip-path="url(#clip-path-3)">
          <path id="패스_919" data-name="패스 919" d="M23.775.97a23.329,23.329,0,0,1-8.184,14.252A23.328,23.328,0,0,1,0,20.419C.894,14.4,2.308,8.613,6.653,4.353S18.036-1.052,23.775.97" transform="translate(0 0)" fill="#428745"/>
          <path id="패스_920" data-name="패스 920" d="M35.732,35.13a.837.837,0,0,1-.655-1.322A49.553,49.553,0,0,1,52.633,18.543a.837.837,0,1,1,.77,1.487A47.87,47.87,0,0,0,36.442,34.778a.837.837,0,0,1-.71.352" transform="translate(-33.336 -16.73)" fill="#5d9e45"/>
        </g>
      </g>
    </g>
  </g>
</svg>
