<svg xmlns="http://www.w3.org/2000/svg" xmlns:xlink="http://www.w3.org/1999/xlink" width="267" height="60.711" viewBox="0 0 267 60.711">
  <defs>
    <clipPath id="clip-path">
      <rect id="사각형_2144" data-name="사각형 2144" width="267" height="60.711" fill="#fff"/>
    </clipPath>
    <clipPath id="clip-path-2">
      <path id="패스_1659" data-name="패스 1659" d="M167.975,21.06v2.6h11.637v2.521a16.111,16.111,0,0,1-.16,2.466,4.626,4.626,0,0,1-.858,1.9H166.635v2.574h4.477V35h-1.341v2.574H178.7v1.261h-8.955v2.521a3.05,3.05,0,0,0,.4,1.609,3.775,3.775,0,0,0,1.019,1.153,6.71,6.71,0,0,0,1.581.751,14.088,14.088,0,0,0,4,.535c.7-.026,1.421-.08,2.118-.161.67-.08,1.314-.187,1.957-.294.617-.161,1.18-.322,1.662-.483V41.921a12.673,12.673,0,0,1-3,.8,22.005,22.005,0,0,1-3.164.161,9.585,9.585,0,0,1-2.467-.4c-.671-.214-.992-.508-.992-.885v-.241h8.9V35h-1.1V33.125h4.29V30.551h-3.192a2.335,2.335,0,0,0,.4-.67,4.352,4.352,0,0,0,.3-1.1c.054-.375.08-.8.107-1.287,0-.456,0-.965.027-1.5V21.06Z" transform="translate(-166.635 -21.06)" fill="#fff"/>
    </clipPath>
  </defs>
  <g id="그룹_1756" data-name="그룹 1756" transform="translate(0 0)">
    <g id="그룹_1751" data-name="그룹 1751" transform="translate(0 0)">
      <g id="그룹_1750" data-name="그룹 1750" clip-path="url(#clip-path)">
        <path id="패스_1649" data-name="패스 1649" d="M178.594,30.551a4.62,4.62,0,0,0,.858-1.9,16.1,16.1,0,0,0,.16-2.466V23.661H167.975v-2.6h14.614v4.934c-.027.536-.027,1.045-.027,1.5-.027.483-.054.912-.107,1.287a4.394,4.394,0,0,1-.294,1.1,2.37,2.37,0,0,1-.4.67h3.191v2.574h-4.29V35h1.1v6.355h-8.9V41.6c0,.375.322.67.993.885a9.624,9.624,0,0,0,2.467.4,22,22,0,0,0,3.164-.161,12.612,12.612,0,0,0,3-.8v2.547c-.482.161-1.046.322-1.662.482-.643.108-1.287.216-1.957.3-.7.081-1.421.135-2.118.161a17.393,17.393,0,0,1-2.091-.134,16.839,16.839,0,0,1-1.9-.4,6.692,6.692,0,0,1-1.582-.751,3.772,3.772,0,0,1-1.018-1.153,3.043,3.043,0,0,1-.4-1.609V38.837H178.7V37.576h-8.928V35h1.341V33.125h-4.478V30.551ZM174.223,35h3.3V33.125h-3.3Z" transform="translate(-40.544 -5.124)" fill="#fff"/>
        <path id="패스_1650" data-name="패스 1650" d="M27.106,53.7v1.723q0,.943,1.171,1.387a7.957,7.957,0,0,0,2.813.444,14.913,14.913,0,0,0,3.447-.363,9.95,9.95,0,0,0,2.988-1.118V57.15a31.983,31.983,0,0,0,6.3-1.478V39.886H39.438v6.947H36.8V53.7Z" transform="translate(-6.595 -9.705)" fill="#fff"/>
        <path id="패스_1651" data-name="패스 1651" d="M34.827,19.961h3.167V17.807H50.13a19,19,0,0,0-9.68-2.468,55.54,55.54,0,0,0-5.623.571Z" transform="translate(-8.474 -3.732)" fill="#fff"/>
        <path id="패스_1652" data-name="패스 1652" d="M14.379,41.955a3.886,3.886,0,0,0,2.531.808h1.481a4.426,4.426,0,0,0,2.6-.781,2.783,2.783,0,0,0,1.117-2.45V35.493H13.382v4.039a2.934,2.934,0,0,0,1,2.423" transform="translate(-3.256 -8.636)" fill="#fff"/>
        <path id="패스_1653" data-name="패스 1653" d="M34.827,23.4v9.614H57.773c-.356-6.1-2.667-10.233-5.911-12.836v5.858a11.223,11.223,0,0,1-.081,1.306,8.248,8.248,0,0,1-.269,1.333,5.949,5.949,0,0,1-.431,1.225,2.393,2.393,0,0,1-.646.848H47.958a5.781,5.781,0,0,0,1-2.275,13.5,13.5,0,0,0,.35-3.136v-4.2H37.994V23.4Z" transform="translate(-8.474 -4.911)" fill="#fff"/>
        <path id="패스_1654" data-name="패스 1654" d="M52.654,39.886v14.7c6.178-3.037,9.372-8.219,9.5-14.7Z" transform="translate(-12.811 -9.705)" fill="#fff"/>
        <path id="패스_1655" data-name="패스 1655" d="M18.841,58.439v-3.8h9.72v-2.8H3.764c2.928,4.18,8.107,7.13,15.475,8.189a3.078,3.078,0,0,1-.4-1.592" transform="translate(-0.916 -12.614)" fill="#fff"/>
        <path id="패스_1656" data-name="패스 1656" d="M30.2,40.861V33.913H23.876V15.992c-2.175-.12-4.735-.653-6.632-.653a19.466,19.466,0,0,0-5.646.835h8.643V22.31a11.227,11.227,0,0,1-.08,1.306,8.216,8.216,0,0,1-.269,1.333,6,6,0,0,1-.431,1.225,2.384,2.384,0,0,1-.646.848H16.337a5.776,5.776,0,0,0,1-2.275,13.539,13.539,0,0,0,.35-3.136V18.328H7.038C3.021,21.056,0,25.851,0,33.509a16.728,16.728,0,0,0,1.613,7.352ZM7.649,28.543H21.327v6.274a4.551,4.551,0,0,1-1.683,3.85,6.814,6.814,0,0,1-4.349,1.265h-1.8A6.431,6.431,0,0,1,9.263,38.6a4.949,4.949,0,0,1-1.615-4.052Z" transform="translate(0 -3.732)" fill="#fff"/>
        <path id="패스_1657" data-name="패스 1657" d="M41.13.761C35.4,2.885,33.689,6.648,32.576,9.712a2.841,2.841,0,0,1-1.023.787v.91A3.309,3.309,0,0,0,33.3,10.184c3.154-.529,7.011.71,11.978-1.084,5.225-1.884,5.052-4.868,10.177-6.648C51.789.806,46.1-1.086,41.13.761" transform="translate(-7.677 0)" fill="#fff"/>
        <path id="패스_1658" data-name="패스 1658" d="M18.477,4.516a9.486,9.486,0,0,1,6.1,6.382,2.02,2.02,0,0,0,.73.561v.649a2.363,2.363,0,0,1-1.249-.873c-2.249-.378-5,.505-8.539-.773-3.725-1.343-3.6-3.47-7.256-4.739C10.878,4.548,14.93,3.2,18.477,4.516" transform="translate(-2.01 -0.967)" fill="#fff"/>
      </g>
    </g>
    <g id="그룹_1753" data-name="그룹 1753" transform="translate(126.091 15.936)">
      <g id="그룹_1752" data-name="그룹 1752" clip-path="url(#clip-path-2)">
        <rect id="사각형_2145" data-name="사각형 2145" width="18.251" height="11.783" transform="translate(-0.508 -2.292)" fill="#fff"/>
      </g>
    </g>
    <g id="그룹_1755" data-name="그룹 1755" transform="translate(0 0)">
      <g id="그룹_1754" data-name="그룹 1754" clip-path="url(#clip-path)">
        <path id="패스_1660" data-name="패스 1660" d="M92.576,29.155a5.241,5.241,0,0,1-.4,2.118,5.123,5.123,0,0,1-1.153,1.635,4.412,4.412,0,0,1-1.662,1.019,5.593,5.593,0,0,1-2.119.375,5.409,5.409,0,0,1-2.118-.375,4.145,4.145,0,0,1-1.69-1.019,4.285,4.285,0,0,1-1.1-1.635,5.227,5.227,0,0,1-.4-2.118,4.321,4.321,0,0,1,.429-1.984c.054-.107.107-.241.188-.376H81.021V24.114h12.36v2.681H91.906l.214.376a4.321,4.321,0,0,1,.456,1.984m-11.02-7.722L83,19.4a3.535,3.535,0,0,0,1.556.911,7.651,7.651,0,0,0,2.627.349h4.533v2.521H86.972A10.525,10.525,0,0,1,83.89,22.8a5.163,5.163,0,0,1-2.333-1.367m7.989,7.748a2.561,2.561,0,0,0-.589-1.716,2.239,2.239,0,0,0-1.716-.67,2.18,2.18,0,0,0-2.332,2.387,2.715,2.715,0,0,0,.616,1.9,2.011,2.011,0,0,0,1.636.724,2.268,2.268,0,0,0,1.8-.724,2.935,2.935,0,0,0,.589-1.9m.027,6.676V38.3a2.654,2.654,0,0,0,.831,2.118,3.473,3.473,0,0,0,2.119.966,8.637,8.637,0,0,0,3.03-.215,12.346,12.346,0,0,0,3.378-1.314V42.4a8.666,8.666,0,0,1-1.528.938,10.522,10.522,0,0,1-1.9.642,16.683,16.683,0,0,1-2.038.269,12.527,12.527,0,0,1-2.038-.16,8.615,8.615,0,0,1-1.877-.617,5.506,5.506,0,0,1-1.581-1.207A5.207,5.207,0,0,1,86.946,40.5a6.786,6.786,0,0,1-.4-2.468V35.858Zm8.956-9.652h3.324V28.86H98.529v7.722H95.5V20.655h3.031Z" transform="translate(-19.713 -4.719)" fill="#fff"/>
        <path id="패스_1661" data-name="패스 1661" d="M122.147,31.383a4.626,4.626,0,0,0,1.207-2.172,12.832,12.832,0,0,0,.268-2.547v-3H111.985v-2.6H126.6v5.416c0,.429-.026.858-.026,1.313q-.081.724-.161,1.368a7.67,7.67,0,0,1-.4,1.26,3.03,3.03,0,0,1-.643.966h3.593v2.574H121.4v2.628h3.968v8.58h-2.976V39.212h-8.768V36.585h4.638V33.957h-7.615V31.383Z" transform="translate(-26.921 -5.124)" fill="#fff"/>
        <path id="패스_1662" data-name="패스 1662" d="M148.506,21.627v3.03a8.982,8.982,0,0,1-2.762,6.864c-1.85,1.716-4.5,2.735-7.99,3.057V31.87a15.572,15.572,0,0,0,2.922-.51,7.691,7.691,0,0,0,2.468-1.126,5.874,5.874,0,0,0,1.769-2.011,6.611,6.611,0,0,0,.643-3.11v-.805H138.29V21.627Z" transform="translate(-33.517 -5.262)" fill="#fff"/>
        <path id="패스_1663" data-name="패스 1663" d="M149.8,49.8a6.1,6.1,0,0,1-2.011-.348,5.8,5.8,0,0,1-1.662-1.019,4.818,4.818,0,0,1-1.1-1.474,4.211,4.211,0,0,1-.4-1.824V40.23h11.744v5.041a4.053,4.053,0,0,1-.429,1.823,5.355,5.355,0,0,1-1.152,1.448,6.589,6.589,0,0,1-1.716.938,7.357,7.357,0,0,1-2.172.322Zm-2.145-4.719a1.867,1.867,0,0,0,.7,1.5,2.444,2.444,0,0,0,1.715.616h.617a3.67,3.67,0,0,0,1.851-.483,1.65,1.65,0,0,0,.8-1.528v-2.36h-5.684Z" transform="translate(-35.19 -9.788)" fill="#fff"/>
        <path id="패스_1664" data-name="패스 1664" d="M159.183,26.342h3.325v2.6h-3.325v5.47h-3V21.06h3Z" transform="translate(-38 -5.124)" fill="#fff"/>
        <path id="패스_1665" data-name="패스 1665" d="M202.6,46.254V40.811h-7.615v-2.6H213.3v2.6h-7.562v5.443Z" transform="translate(-47.442 -9.297)" fill="#fff"/>
        <path id="패스_1666" data-name="패스 1666" d="M205.833,20.741v.724a11.775,11.775,0,0,1-.51,3.432,12.612,12.612,0,0,1,2.119.777,11.348,11.348,0,0,1,2.306,1.69,8.839,8.839,0,0,1,1.555,2.2,5.824,5.824,0,0,1,.59,2.44v.67H209.1v-.831a3.91,3.91,0,0,0-.4-1.34,5.259,5.259,0,0,0-1.126-1.368,6.84,6.84,0,0,0-3.432-1.743A10.117,10.117,0,0,1,203.1,28.7a10.3,10.3,0,0,1-3.325,2.333,13.566,13.566,0,0,1-4.611,1.18V29.536a11.12,11.12,0,0,0,3-.885,7.7,7.7,0,0,0,2.413-1.581,7.21,7.21,0,0,0,1.609-2.387,8.6,8.6,0,0,0,.59-3.271v-.67Z" transform="translate(-47.485 -5.047)" fill="#fff"/>
        <path id="패스_1667" data-name="패스 1667" d="M230.24,38.34h-7.615V35.765h18.313V38.34h-7.561v.966h4.371v5.978h-8.9v.162c0,.294.322.536.993.724a13.551,13.551,0,0,0,2.466.321,26.96,26.96,0,0,0,3.165-.188,12.647,12.647,0,0,0,3-.8v2.546c-.483.161-1.046.322-1.662.483-.644.108-1.288.215-1.958.3-.7.08-1.421.135-2.118.161a14.041,14.041,0,0,1-4-.536,6.75,6.75,0,0,1-1.582-.751,3.766,3.766,0,0,1-1.018-1.152,3.047,3.047,0,0,1-.4-1.609V42.764h8.955v-.885h-8.929V39.306h4.477Z" transform="translate(-54.167 -8.702)" fill="#fff"/>
        <path id="패스_1668" data-name="패스 1668" d="M236.773,24.71v1.072a4.117,4.117,0,0,1-.779,2.332,8.1,8.1,0,0,1,1.744.805,5.353,5.353,0,0,1,1.179,1.286,3.8,3.8,0,0,1,.43,1.743V32.4h-2.79v-.134a1.688,1.688,0,0,0-.991-1.555,5.874,5.874,0,0,0-2.145-.51l-.59.269a17.608,17.608,0,0,1-4.155,1.233,30.075,30.075,0,0,1-4.988.563V29.563a24.928,24.928,0,0,0,3.352-.242,16.536,16.536,0,0,0,3.245-.67,7.962,7.962,0,0,0,2.44-1.179c.026,0,.054-.028.107-.081h-7.775V24.71Z" transform="translate(-54.426 -6.012)" fill="#fff"/>
        <path id="패스_1669" data-name="패스 1669" d="M225.956,20.972l1.448-2.038a2.812,2.812,0,0,0,1.529.832,11.482,11.482,0,0,0,2.654.241h5.068v2.521H231.4a13.143,13.143,0,0,1-3.109-.3,4.364,4.364,0,0,1-2.334-1.261" transform="translate(-54.978 -4.607)" fill="#fff"/>
        <path id="패스_1670" data-name="패스 1670" d="M259.674,40.8v2.36a2.819,2.819,0,0,0,.777,2.145,3.189,3.189,0,0,0,2.039.965,7.865,7.865,0,0,0,3-.188,12.886,12.886,0,0,0,3.539-1.287v2.547a8.553,8.553,0,0,1-1.528.939,10.621,10.621,0,0,1-1.9.644,16.984,16.984,0,0,1-2.038.267,12.529,12.529,0,0,1-2.038-.16,8.609,8.609,0,0,1-1.877-.617,5.5,5.5,0,0,1-1.582-1.206,5.191,5.191,0,0,1-1.019-1.77,6.785,6.785,0,0,1-.4-2.467V40.8Z" transform="translate(-62.445 -9.926)" fill="#fff"/>
        <path id="패스_1671" data-name="패스 1671" d="M255.586,21.22a7.019,7.019,0,0,1,2.6.536,5.75,5.75,0,0,1,1.77,1.421,5.674,5.674,0,0,1,.536.858h3.754V21.06h3V35.806l-3,.028V31.464h-3.727a4.33,4.33,0,0,1-.8,1.126,5.888,5.888,0,0,1-6.462,1.206,4.552,4.552,0,0,1-1.823-1.341,5.742,5.742,0,0,1-1.153-2.064,7.1,7.1,0,0,1-.4-2.654,7.14,7.14,0,0,1,.348-2.493,6.13,6.13,0,0,1,1.1-2.065,5.557,5.557,0,0,1,1.8-1.421,6.309,6.309,0,0,1,2.467-.536m0,2.709a2.146,2.146,0,0,0-2.173,1.126,5.985,5.985,0,0,0-.563,2.681,5.546,5.546,0,0,0,.589,2.654,2.13,2.13,0,0,0,2.146,1.153,2.714,2.714,0,0,0,1.367-.322,2.242,2.242,0,0,0,.831-.831,4.749,4.749,0,0,0,.429-1.233c.054-.43.107-.913.134-1.422a6.33,6.33,0,0,0-.589-2.708,2.275,2.275,0,0,0-2.172-1.1m5.683,2.707c.027.375.054.724.08,1.1a7.41,7.41,0,0,1-.08,1.127h2.977V26.637Z" transform="translate(-60.796 -5.124)" fill="#fff"/>
        <path id="패스_1672" data-name="패스 1672" d="M278.438,20.972l1.448-2.038a3.528,3.528,0,0,0,1.555.912,7.677,7.677,0,0,0,2.628.348H288.6v2.521h-4.746a10.587,10.587,0,0,1-3.084-.375,5.19,5.19,0,0,1-2.332-1.368" transform="translate(-67.747 -4.607)" fill="#fff"/>
        <path id="패스_1673" data-name="패스 1673" d="M289.285,29.552a3.972,3.972,0,0,1-.4,1.824,4.359,4.359,0,0,1-1.153,1.367,4.883,4.883,0,0,1-1.662.858,6.877,6.877,0,0,1-2.118.322,6.631,6.631,0,0,1-2.118-.322,5,5,0,0,1-1.716-.912,3.98,3.98,0,0,1-1.1-1.394,3.481,3.481,0,0,1-.375-1.743,2.87,2.87,0,0,1,.43-1.529,3.954,3.954,0,0,1,.428-.563h-1.769V24.78H290.09v2.681h-1.663c.135.161.269.349.4.51a2.948,2.948,0,0,1,.456,1.581m-3.03,0a2.2,2.2,0,0,0-.59-1.474,2.31,2.31,0,0,0-1.715-.617,2.487,2.487,0,0,0-1.69.591,1.909,1.909,0,0,0-.642,1.5,1.725,1.725,0,0,0,.616,1.421,2.274,2.274,0,0,0,1.635.536,2.5,2.5,0,0,0,1.77-.536,1.9,1.9,0,0,0,.617-1.421" transform="translate(-67.575 -6.029)" fill="#fff"/>
        <path id="패스_1674" data-name="패스 1674" d="M293.638,38.741h3v6.327a3.293,3.293,0,0,1-.509,1.8,5.321,5.321,0,0,1-1.341,1.34,8.154,8.154,0,0,1-1.9.832,10.007,10.007,0,0,1-2.172.269,8.33,8.33,0,0,1-2.173-.3,5.549,5.549,0,0,1-1.9-.966,4.619,4.619,0,0,1-1.314-1.635A5.18,5.18,0,0,1,284.816,44V38.741h3v2.735h5.818Zm-5.818,6.087a1.441,1.441,0,0,0,.911,1.395,4.324,4.324,0,0,0,1.985.456,4.99,4.99,0,0,0,2.01-.429,1.367,1.367,0,0,0,.912-1.287V43.97h-5.818Z" transform="translate(-69.299 -9.426)" fill="#fff"/>
        <path id="패스_1675" data-name="패스 1675" d="M299.512,25.538h3.325v2.6h-3.325V32.8h-3V21.06h3Z" transform="translate(-72.144 -5.124)" fill="#fff"/>
        <path id="패스_1676" data-name="패스 1676" d="M313.5,39.765h-3.324a12.046,12.046,0,0,1-3.566-9.278,11.811,11.811,0,0,1,3.566-9.251h3.3c-2.735,3.272-3.861,5.684-3.861,9.251,0,3.458,1.125,6.193,3.887,9.278" transform="translate(-74.602 -5.167)" fill="#fff"/>
        <path id="패스_1677" data-name="패스 1677" d="M325.21,42.22V36.777H317.6v-2.6h18.313v2.6h-7.561V42.22Zm6.274-20.593v1.207a7.937,7.937,0,0,1-.993,3.861,1.618,1.618,0,0,0-.107.188c.161.054.294.135.456.188a6.725,6.725,0,0,1,1.85,1.287A6.335,6.335,0,0,1,333.9,30.1a6.018,6.018,0,0,1,.428,2.038v.885h-2.788v-.832a2.84,2.84,0,0,0-1.072-2.144,4.673,4.673,0,0,0-2.091-.885c-.214.161-.4.322-.59.456a14.433,14.433,0,0,1-3.969,1.958,21.861,21.861,0,0,1-4.88.991V29.859a18.686,18.686,0,0,0,3.378-.644,11.039,11.039,0,0,0,3.057-1.233,7.042,7.042,0,0,0,2.2-2.065,5.512,5.512,0,0,0,.67-1.609h-8.473V21.627Z" transform="translate(-77.274 -5.262)" fill="#fff"/>
        <path id="패스_1678" data-name="패스 1678" d="M347.08,39.765h-3.3c2.762-3.084,3.888-5.82,3.888-9.278,0-3.566-1.126-5.979-3.861-9.251h3.271a11.81,11.81,0,0,1,3.566,9.251,12.045,12.045,0,0,1-3.566,9.278" transform="translate(-83.646 -5.167)" fill="#fff"/>
        <path id="패스_1679" data-name="패스 1679" d="M85.052,65.78h1.177v8.944H85.052Zm1.278,4.371,3.7-4.371h1.252l-3.62,4.247,3.8,4.7H90.063Z" transform="translate(-20.694 -16.005)" fill="#fff"/>
        <path id="패스_1680" data-name="패스 1680" d="M95.566,72.259v-.226c0-2.079,1.215-3.357,3.031-3.357,1.892,0,3.019,1.239,3.019,3.32v.213c0,2.08-1.215,3.345-3.032,3.345-1.9,0-3.018-1.227-3.018-3.295m4.873.076v-.364c0-1.791-.84-2.368-1.867-2.368-1.165,0-1.829.839-1.829,2.318v.363c0,1.792.839,2.343,1.867,2.343,1.152,0,1.829-.814,1.829-2.292" transform="translate(-23.252 -16.71)" fill="#fff"/>
        <path id="패스_1681" data-name="패스 1681" d="M106.476,68.831h1.078v.726h.075a2.468,2.468,0,0,1,1.792-.813,1.086,1.086,0,0,1,.412.063v1a4.106,4.106,0,0,0-.5-.037,3.15,3.15,0,0,0-1.717.513v5.161h-1.14Z" transform="translate(-25.907 -16.726)" fill="#fff"/>
        <path id="패스_1682" data-name="패스 1682" d="M113,72.222v-.2c0-2.306,1.378-3.345,2.919-3.345,1.817,0,2.681,1.053,2.681,3.132v.639h-4.422c.075,1.578.851,2.13,2.167,2.13a4.051,4.051,0,0,0,2.054-.5v.839a3.782,3.782,0,0,1-2.243.639c-2.091,0-3.157-1.29-3.157-3.332m1.178-.689H117.4c0-1.391-.526-1.942-1.528-1.942-.739,0-1.591.413-1.691,1.942" transform="translate(-27.494 -16.71)" fill="#fff"/>
        <path id="패스_1683" data-name="패스 1683" d="M122.75,73.675c0-1.152.751-1.766,2-1.929l1.754-.213v-.614c0-1.015-.438-1.252-1.628-1.252a7.146,7.146,0,0,0-1.578.188V69.04a5.533,5.533,0,0,1,2.029-.363c1.466,0,2.306.627,2.306,1.955v4.8h-.915l-.113-.551h-.075a2.146,2.146,0,0,1-1.729.676,1.808,1.808,0,0,1-2.054-1.88m3.758.552V72.4l-1.466.151c-.751.075-1.115.375-1.115,1.1,0,.689.464,1.028,1.165,1.028a2.223,2.223,0,0,0,1.416-.451" transform="translate(-29.866 -16.71)" fill="#fff"/>
        <path id="패스_1684" data-name="패스 1684" d="M137.9,70.329v-.313c0-3.22,1.842-4.436,4.109-4.436a4.536,4.536,0,0,1,2.2.489v.978a6.184,6.184,0,0,0-2.293-.464c-1.591,0-2.756.928-2.756,3.245v.489c0,2.2.814,3.508,2.819,3.508a5.069,5.069,0,0,0,2.33-.564v.989a4.948,4.948,0,0,1-2.493.577c-2.393,0-3.921-1.466-3.921-4.5" transform="translate(-33.552 -15.956)" fill="#fff"/>
        <path id="패스_1685" data-name="패스 1685" d="M149.306,65.564h1.165v1.177h-1.165Zm.013,2.493h1.14v6.614h-1.14Z" transform="translate(-36.328 -15.953)" fill="#fff"/>
        <path id="패스_1686" data-name="패스 1686" d="M154.5,73.412V69.291h-.94v-.94h.94V66.772h1.127v1.579h1.666v.94h-1.666v3.957c0,.627.213.865.965.865a3.882,3.882,0,0,0,.839-.1v.763a2.329,2.329,0,0,1-1.14.264c-1.065,0-1.792-.451-1.792-1.629" transform="translate(-37.363 -16.246)" fill="#fff"/>
        <path id="패스_1687" data-name="패스 1687" d="M161.475,68.831h1.077v.726h.075a2.468,2.468,0,0,1,1.792-.813,1.09,1.09,0,0,1,.413.063v1a4.117,4.117,0,0,0-.5-.037,3.15,3.15,0,0,0-1.717.513v5.161h-1.139Z" transform="translate(-39.289 -16.726)" fill="#fff"/>
        <path id="패스_1688" data-name="패스 1688" d="M168.494,73.656v-4.8h1.127v4.61c0,.814.275,1.152,1.227,1.152a3.729,3.729,0,0,0,1.716-.477V68.859h1.14v6.613h-.965l-.126-.563h-.063a3.493,3.493,0,0,1-2.029.689,1.778,1.778,0,0,1-2.029-1.942" transform="translate(-40.996 -16.754)" fill="#fff"/>
        <path id="패스_1689" data-name="패스 1689" d="M178.262,75.078v-.9a4.573,4.573,0,0,0,1.98.413c.99,0,1.416-.337,1.416-.914,0-.538-.276-.814-1.09-1.027l-.627-.176c-.953-.251-1.654-.689-1.654-1.842s.739-1.954,2.318-1.954a3.868,3.868,0,0,1,1.817.388v.914a4.781,4.781,0,0,0-1.767-.338c-.851,0-1.29.288-1.29.878,0,.538.288.751.965.938l.627.163c1.29.35,1.816.776,1.816,1.954,0,1.3-.927,1.967-2.368,1.967a4.375,4.375,0,0,1-2.142-.464" transform="translate(-43.373 -16.71)" fill="#fff"/>
        <path id="패스_1690" data-name="패스 1690" d="M193.08,65.78h5.336v1h-4.159v2.831h3.207V70.6h-3.207v3.132h4.2v.99H193.08Z" transform="translate(-46.979 -16.005)" fill="#fff"/>
        <path id="패스_1691" data-name="패스 1691" d="M204.648,72.1l-2.129-3.245h1.353l1.565,2.443,1.429-2.443h1.228L206.076,72.1l2.193,3.37h-1.353l-1.6-2.555-1.641,2.555h-1.253Z" transform="translate(-49.251 -16.754)" fill="#fff"/>
        <path id="패스_1692" data-name="패스 1692" d="M212.7,68.815h1.078v.526h.075a2.8,2.8,0,0,1,1.9-.664c1.428,0,2.705.765,2.705,3.208v.175c0,2.43-1.152,3.47-2.981,3.47a3.113,3.113,0,0,1-1.641-.426v2.318H212.7Zm4.6,3.407v-.288c0-1.791-.664-2.279-1.854-2.279a2.806,2.806,0,0,0-1.6.451v4.046a2.555,2.555,0,0,0,1.541.451c1.2,0,1.917-.652,1.917-2.381" transform="translate(-51.752 -16.71)" fill="#fff"/>
        <path id="패스_1693" data-name="패스 1693" d="M222.732,72.259v-.226c0-2.079,1.215-3.357,3.031-3.357,1.892,0,3.019,1.239,3.019,3.32v.213c0,2.08-1.215,3.345-3.031,3.345-1.9,0-3.019-1.227-3.019-3.295m4.873.076v-.364c0-1.791-.839-2.368-1.867-2.368-1.165,0-1.829.839-1.829,2.318v.363c0,1.792.839,2.343,1.866,2.343,1.152,0,1.83-.814,1.83-2.292" transform="translate(-54.193 -16.71)" fill="#fff"/>
        <path id="패스_1694" data-name="패스 1694" d="M233.642,68.831h1.077v.726h.075a2.468,2.468,0,0,1,1.791-.813,1.09,1.09,0,0,1,.413.063v1a4.106,4.106,0,0,0-.5-.037,3.145,3.145,0,0,0-1.716.513v5.161h-1.14Z" transform="translate(-56.848 -16.726)" fill="#fff"/>
        <path id="패스_1695" data-name="패스 1695" d="M241.038,73.412V69.291h-.94v-.94h.94V66.772h1.127v1.579h1.666v.94h-1.666v3.957c0,.627.213.865.965.865a3.882,3.882,0,0,0,.839-.1v.763a2.33,2.33,0,0,1-1.14.264c-1.064,0-1.791-.451-1.791-1.629" transform="translate(-58.418 -16.246)" fill="#fff"/>
        <path id="패스_1696" data-name="패스 1696" d="M253.295,70.329v-.313c0-3.22,1.841-4.436,4.108-4.436a4.541,4.541,0,0,1,2.206.489v.978a6.191,6.191,0,0,0-2.293-.464c-1.591,0-2.756.928-2.756,3.245v.489c0,2.2.814,3.508,2.819,3.508a5.071,5.071,0,0,0,2.33-.564v.989a4.951,4.951,0,0,1-2.493.577c-2.393,0-3.92-1.466-3.92-4.5" transform="translate(-61.629 -15.956)" fill="#fff"/>
        <path id="패스_1697" data-name="패스 1697" d="M264.122,72.259v-.226c0-2.079,1.215-3.357,3.031-3.357,1.892,0,3.02,1.239,3.02,3.32v.213c0,2.08-1.216,3.345-3.032,3.345-1.9,0-3.019-1.227-3.019-3.295m4.873.076v-.364c0-1.791-.839-2.368-1.867-2.368-1.165,0-1.829.839-1.829,2.318v.363c0,1.792.839,2.343,1.866,2.343,1.152,0,1.83-.814,1.83-2.292" transform="translate(-64.264 -16.71)" fill="#fff"/>
        <path id="패스_1698" data-name="패스 1698" d="M275.032,68.831h1.077v.726h.075a2.468,2.468,0,0,1,1.791-.813,1.1,1.1,0,0,1,.414.063v1a4.116,4.116,0,0,0-.5-.037,3.145,3.145,0,0,0-1.716.513v5.161h-1.14Z" transform="translate(-66.918 -16.726)" fill="#fff"/>
        <path id="패스_1699" data-name="패스 1699" d="M282.1,68.815h1.078v.526h.075a2.8,2.8,0,0,1,1.9-.664c1.428,0,2.705.765,2.705,3.208v.175c0,2.43-1.152,3.47-2.981,3.47a3.113,3.113,0,0,1-1.641-.426v2.318H282.1Zm4.6,3.407v-.288c0-1.791-.664-2.279-1.854-2.279a2.8,2.8,0,0,0-1.6.451v4.046a2.553,2.553,0,0,0,1.541.451c1.2,0,1.917-.652,1.917-2.381" transform="translate(-68.638 -16.71)" fill="#fff"/>
        <path id="패스_1700" data-name="패스 1700" d="M292.134,72.259v-.226c0-2.079,1.215-3.357,3.031-3.357,1.892,0,3.02,1.239,3.02,3.32v.213c0,2.08-1.216,3.345-3.032,3.345-1.9,0-3.019-1.227-3.019-3.295m4.873.076v-.364c0-1.791-.839-2.368-1.867-2.368-1.164,0-1.829.839-1.829,2.318v.363c0,1.792.839,2.343,1.867,2.343,1.152,0,1.829-.814,1.829-2.292" transform="translate(-71.079 -16.71)" fill="#fff"/>
        <path id="패스_1701" data-name="패스 1701" d="M303.045,68.831h1.078v.726h.075a2.468,2.468,0,0,1,1.791-.813,1.1,1.1,0,0,1,.414.063v1a4.127,4.127,0,0,0-.5-.037,3.145,3.145,0,0,0-1.716.513v5.161h-1.14Z" transform="translate(-73.734 -16.726)" fill="#fff"/>
        <path id="패스_1702" data-name="패스 1702" d="M309.386,73.675c0-1.152.751-1.766,2-1.929l1.754-.213v-.614c0-1.015-.438-1.252-1.628-1.252a7.146,7.146,0,0,0-1.578.188V69.04a5.542,5.542,0,0,1,2.03-.363c1.466,0,2.3.627,2.3,1.955v4.8h-.915l-.114-.551h-.075a2.145,2.145,0,0,1-1.728.676,1.807,1.807,0,0,1-2.054-1.88m3.758.552V72.4l-1.466.151c-.751.075-1.115.375-1.115,1.1,0,.689.465,1.028,1.166,1.028a2.222,2.222,0,0,0,1.415-.451" transform="translate(-75.277 -16.71)" fill="#fff"/>
        <path id="패스_1703" data-name="패스 1703" d="M319.414,73.412V69.291h-.94v-.94h.94V66.772h1.127v1.579h1.666v.94h-1.666v3.957c0,.627.213.865.965.865a3.882,3.882,0,0,0,.839-.1v.763a2.33,2.33,0,0,1-1.14.264c-1.065,0-1.791-.451-1.791-1.629" transform="translate(-77.488 -16.246)" fill="#fff"/>
        <path id="패스_1704" data-name="패스 1704" d="M326.422,65.564h1.165v1.177h-1.165Zm.012,2.493h1.14v6.614h-1.14Z" transform="translate(-79.422 -15.953)" fill="#fff"/>
        <path id="패스_1705" data-name="패스 1705" d="M330.908,72.259v-.226c0-2.079,1.215-3.357,3.031-3.357,1.892,0,3.02,1.239,3.02,3.32v.213c0,2.08-1.216,3.345-3.032,3.345-1.9,0-3.019-1.227-3.019-3.295m4.873.076v-.364c0-1.791-.839-2.368-1.867-2.368-1.165,0-1.829.839-1.829,2.318v.363c0,1.792.839,2.343,1.867,2.343,1.152,0,1.829-.814,1.829-2.292" transform="translate(-80.513 -16.71)" fill="#fff"/>
        <path id="패스_1706" data-name="패스 1706" d="M341.818,68.815H342.9v.564h.075a4.133,4.133,0,0,1,2.23-.7c1.3,0,1.917.55,1.917,1.828v4.924H345.99V70.744c0-.764-.251-1.078-1.29-1.078a4.406,4.406,0,0,0-1.741.439v5.324h-1.14Z" transform="translate(-83.168 -16.71)" fill="#fff"/>
      </g>
    </g>
  </g>
</svg>
